<svg width="12" height="12" viewBox="0 0 12 12" fill="none" xmlns="http://www.w3.org/2000/svg">
<path d="M7.74999 1.125C7.74999 1.02554 7.78949 0.930161 7.85982 0.859835C7.93015 0.789509 8.02553 0.75 8.12499 0.75H10.875C10.9744 0.75 11.0698 0.789509 11.1402 0.859835C11.2105 0.930161 11.25 1.02554 11.25 1.125V3.875C11.25 3.97446 11.2105 4.06984 11.1402 4.14016C11.0698 4.21049 10.9744 4.25 10.875 4.25C10.7755 4.25 10.6801 4.21049 10.6098 4.14016C10.5395 4.06984 10.5 3.97446 10.5 3.875V2.03L7.38999 5.14C7.35565 5.17684 7.31425 5.20639 7.26825 5.22689C7.22225 5.24739 7.1726 5.25841 7.12225 5.2593C7.0719 5.26018 7.02188 5.25092 6.97519 5.23206C6.92849 5.2132 6.88608 5.18513 6.85047 5.14952C6.81486 5.11391 6.78678 5.07149 6.76792 5.0248C6.74906 4.9781 6.7398 4.92809 6.74069 4.87774C6.74158 4.82739 6.7526 4.77773 6.77309 4.73173C6.79359 4.68573 6.82314 4.64433 6.85999 4.61L9.96999 1.5H8.12499C8.02553 1.5 7.93015 1.46049 7.85982 1.39017C7.78949 1.31984 7.74999 1.22446 7.74999 1.125Z" fill="#1C1918"/>
<path d="M1.25 2.125C1.25 1.642 1.642 1.25 2.125 1.25H6.375C6.47446 1.25 6.56984 1.28951 6.64016 1.35983C6.71049 1.43016 6.75 1.52554 6.75 1.625C6.75 1.72446 6.71049 1.81984 6.64016 1.89017C6.56984 1.96049 6.47446 2 6.375 2H2.125C2.09185 2 2.06005 2.01317 2.03661 2.03661C2.01317 2.06005 2 2.09185 2 2.125V9.875C2 9.944 2.056 10 2.125 10H9.875C9.90815 10 9.93995 9.98683 9.96339 9.96339C9.98683 9.93995 10 9.90815 10 9.875V5.625C10 5.52554 10.0395 5.43016 10.1098 5.35984C10.1802 5.28951 10.2755 5.25 10.375 5.25C10.4745 5.25 10.5698 5.28951 10.6402 5.35984C10.7105 5.43016 10.75 5.52554 10.75 5.625V9.875C10.75 10.1071 10.6578 10.3296 10.4937 10.4937C10.3296 10.6578 10.1071 10.75 9.875 10.75H2.125C1.89294 10.75 1.67038 10.6578 1.50628 10.4937C1.34219 10.3296 1.25 10.1071 1.25 9.875V2.125Z" fill="#1C1918"/>
</svg>
