<svg xmlns="http://www.w3.org/2000/svg" width="270" height="270" viewBox="0 0 270 270"><g transform="translate(-753 -751)"><g transform="translate(753 751)" fill="rgba(255,255,255,0.1)" stroke="#fff" stroke-width="1"><rect width="270" height="270" stroke="none"/><rect x="0.5" y="0.5" width="269" height="269" fill="none"/></g><g transform="translate(29)"><path d="M-35.24-7.3h-6.42l-.16-1.08-1.84.52v-3.06h1.32V-9.1h7.1Zm4.54-1.8v-2.2h-4.54V-13h3.68v-2.16h-3.68v-1.78H-37.6v1.78h-3.54V-13h3.54v1.7H-42v-1.88h-1.66v-3.74h-2.18v3.74h-.94q.18-1.2.3-2.4l-1.98-.32A24.322,24.322,0,0,1-49.6-9.46a12.733,12.733,0,0,1,1.68,1.08,16.18,16.18,0,0,0,.74-2.54h1.34v3.68c-1.34.36-2.58.68-3.56.9l.56,2.28c.9-.26,1.92-.56,3-.88V1.74h2.18V-5.6c.58-.18,1.18-.38,1.76-.56V-5.1h2.42L-41.2-4.04A16,16,0,0,1-38.92-.9l1.9-1.22a15.686,15.686,0,0,0-2.4-2.98h4.18V-.96c0,.26-.08.32-.42.34-.32,0-1.4,0-2.4-.04a8.663,8.663,0,0,1,.72,2.36,9.079,9.079,0,0,0,3.44-.4c.8-.38,1-1.02,1-2.22V-5.1h2.02V-7.3H-32.9V-9.1Zm8.78-7.22h-6.34v1.8h6.34ZM-24.1-3.48v2.3h-2.28v-2.3Zm2.08-1.88h-6.42V1.46h2.06V.68h4.36Zm-6.36-.98h6.42V-8.12h-6.42ZM-10.66-8h-4.12v-4h3.7v-2.18h-6.5a22.81,22.81,0,0,0,.66-2.36L-19.3-17a18.3,18.3,0,0,1-1.86,5.18v-1.82h-8.18v1.88h8.14a9.942,9.942,0,0,1-.76,1.18v-.28h-6.42v1.82h6.42v-1.04a17.083,17.083,0,0,1,1.82,1.16A16.406,16.406,0,0,0-18.4-12h1.22v4h-4.18v2.26h4.18V1.72h2.4V-5.74h4.12Zm10.6-7.96H-8.9v2.16H-.06Zm-2.7,5.78v2.54H-5.98v-2.54ZM-.48-5.5v-6.8H-8.26v5.08c0,2.3-.1,5.42-1.42,7.56A10.3,10.3,0,0,1-7.8,1.76C-6.56-.2-6.14-3.06-6.02-5.5Zm9.86-4.7H2.96v-2.6a33.319,33.319,0,0,0,6.3-2.14l-2.1-1.8a22.438,22.438,0,0,1-4.88,1.96L.64-15.16v5.52C.64-6.68.36-2.72-2.42.1A5.877,5.877,0,0,1-.66,1.7C2-.96,2.74-4.84,2.92-7.9H5.24V1.74H7.6V-7.9H9.38ZM25.6-13.7H20.4v-1h5.2Zm0,2.6H20.4v-1.04h5.2ZM28-16.36H18.1v6.92H28Zm-13.34-.56A14.265,14.265,0,0,1,10.5-13a14.759,14.759,0,0,1,1.18,2.02A21.175,21.175,0,0,0,16.92-16Zm.52,4.36a17.953,17.953,0,0,1-4.9,5.14,17.748,17.748,0,0,1,1.14,2.46,18.789,18.789,0,0,0,1.8-1.62v8.3h2.3V-9.14a21.119,21.119,0,0,0,1.74-2.52ZM29.06-5.48H26.34V-6.62h2.32V-8.56H17.08v1.94h6.84v1.14H16.6v2.02h2.8l-1.48.98A16.848,16.848,0,0,1,20.22.3L22-.96a21.028,21.028,0,0,0-2.28-2.5h4.2V-.68c0,.22-.08.3-.36.32-.26,0-1.2,0-2.04-.04a8.357,8.357,0,0,1,.74,2.12,7.917,7.917,0,0,0,3.1-.34c.78-.34.98-.9.98-2V-3.46h2.74Zm11.66.84V-6.56c.12.12.2.22.28.3a12.686,12.686,0,0,0,.92-1.44,21.173,21.173,0,0,0,1.36,3.94A9.825,9.825,0,0,1,39.76-.74,18.627,18.627,0,0,0,38.1-1.8a8.083,8.083,0,0,0,1.06-2.84Zm-5.74,0h1.94a6.081,6.081,0,0,1-.76,1.82c-.58-.28-1.16-.52-1.76-.76Zm10.76-6.5a21.4,21.4,0,0,1-1.08,4.7,25.236,25.236,0,0,1-1.22-4.7Zm3.58,0v-2.2H44c.26-1.06.48-2.16.64-3.28l-2.4-.32c-.48,3.56-1.44,6.96-3.14,9a13.867,13.867,0,0,1,1.62,1.38H35.96l.48-.96-.86-.18h1.28v-2.42c.78.62,1.62,1.32,2.06,1.74l1.26-1.64c-.44-.3-1.86-1.14-2.82-1.68h3.28v-1.88h-1.9c.48-.62,1.1-1.46,1.72-2.32l-2-.8a19.318,19.318,0,0,1-1.34,2.54l1.32.58H36.86v-3.36H34.68v3.36H33l1.28-.56a8.521,8.521,0,0,0-1.2-2.48l-1.72.72a10.654,10.654,0,0,1,1.04,2.32H30.88v1.88H34a10.624,10.624,0,0,1-3.52,2.5,7.2,7.2,0,0,1,1.2,1.72,14.415,14.415,0,0,0,3-2.32v1.92l-.44-.1c-.2.44-.44.92-.68,1.42h-2.9v1.92h1.9c-.5.96-1,1.86-1.44,2.56l2.08.64.22-.38a11.533,11.533,0,0,1,1.12.54A10.51,10.51,0,0,1,30.74-.2a5.253,5.253,0,0,1,.94,1.96A12.27,12.27,0,0,0,36.6-.14a18.953,18.953,0,0,1,2.08,1.5l.9-.92a9.031,9.031,0,0,1,.76,1.36,12.99,12.99,0,0,0,4.22-3.28A10.855,10.855,0,0,0,47.92,1.7,9.184,9.184,0,0,1,49.56-.36a9.387,9.387,0,0,1-3.54-3.32,22.5,22.5,0,0,0,2.18-7.46Z" transform="translate(860 872)" fill="#fff"/><rect width="30" height="1" transform="translate(754 864)" fill="#fff"/></g><rect width="30" height="1" transform="translate(965 864)" fill="#fff"/><path d="M-5649.523-1789.482l2.444-5.4,2.734-6a17.714,17.714,0,0,0,5.659-3.817c.155-.156.312-.324.457-.48l8.337,14.631h-10.714l-5.356,8.929Zm-12.512-1.072h-10.714l8.348-14.642c.145.168.3.324.457.48a17.706,17.706,0,0,0,5.671,3.829,17.682,17.682,0,0,0,6.952,1.406,18.618,18.618,0,0,0,2.846-.223l-2.846,6.272-5.356,11.807Zm-3.571-26.785a14.285,14.285,0,0,1,14.286-14.286,14.284,14.284,0,0,1,14.286,14.286,14.285,14.285,0,0,1-14.286,14.286A14.286,14.286,0,0,1-5665.607-1817.339Zm5.358,0a8.924,8.924,0,0,0,8.928,8.928,8.926,8.926,0,0,0,8.93-8.928,8.927,8.927,0,0,0-8.93-8.929A8.926,8.926,0,0,0-5660.249-1817.339Z" transform="translate(6538.75 2614.624)" fill="#fff"/><g transform="translate(-15)"><g transform="translate(41 6)"><path d="M14.88,0H26.8c.96-22.48,3.12-34.08,16.56-50.48v-7.2H4v9.84H30.64C19.6-32.48,15.92-19.92,14.88,0ZM70.64,1.12c12,0,19.92-6.88,19.92-15.84,0-7.76-4.56-12-9.92-15.04v-.4c3.76-2.64,7.6-7.28,7.6-12.96,0-9.44-6.72-15.68-17.2-15.68C60.8-58.8,53.2-52.72,53.2-43.2c0,6.08,3.36,10.32,7.84,13.6v.32C55.6-26.4,50.88-21.84,50.88-14.72,50.88-5.44,59.36,1.12,70.64,1.12ZM74.4-33.04c-6.16-2.4-10.8-4.88-10.8-10.16,0-4.72,3.2-7.28,7.2-7.28,4.96,0,7.84,3.36,7.84,8.16C78.64-39.04,77.12-35.92,74.4-33.04ZM70.96-7.2c-5.52,0-9.92-3.44-9.92-8.8,0-4.08,2.32-7.6,5.44-10.08,7.6,3.12,13.12,5.2,13.12,10.96C79.6-10,76-7.2,70.96-7.2Zm46.8,8.32c12,0,19.92-6.88,19.92-15.84,0-7.76-4.56-12-9.92-15.04v-.4c3.76-2.64,7.6-7.28,7.6-12.96,0-9.44-6.72-15.68-17.2-15.68-10.24,0-17.84,6.08-17.84,15.6,0,6.08,3.36,10.32,7.84,13.6v.32C102.72-26.4,98-21.84,98-14.72,98-5.44,106.48,1.12,117.76,1.12Zm3.76-34.16c-6.16-2.4-10.8-4.88-10.8-10.16,0-4.72,3.2-7.28,7.2-7.28,4.96,0,7.84,3.36,7.84,8.16C125.76-39.04,124.24-35.92,121.52-33.04ZM118.08-7.2c-5.52,0-9.92-3.44-9.92-8.8,0-4.08,2.32-7.6,5.44-10.08,7.6,3.12,13.12,5.2,13.12,10.96C126.72-10,123.12-7.2,118.08-7.2Z" transform="translate(777 962)" fill="#fff"/></g><path d="M3.9-13.488A16.942,16.942,0,0,1,.352-7.5,13,13,0,0,1,1.376-5.52c.32-.352.64-.752.96-1.152V1.376H4.144V-9.5a27.1,27.1,0,0,0,1.568-3.408Zm11.5,7.648h-4.1V-8.592h3.344v-1.856H11.312v-2.9H9.392v2.9H8.064c.176-.608.336-1.216.464-1.84l-1.84-.384A14.686,14.686,0,0,1,4.8-7.44a12.3,12.3,0,0,1,1.648.912A11.291,11.291,0,0,0,7.44-8.592H9.392V-5.84H5.072v1.856h4.32V1.392h1.92V-3.984h4.1Z" transform="translate(965 965)" fill="#fff"/></g></g></svg>