<svg xmlns="http://www.w3.org/2000/svg" width="270" height="270" viewBox="0 0 270 270"><g transform="translate(-753 -751)"><g transform="translate(753 751)" fill="rgba(255,255,255,0.1)" stroke="#fff" stroke-width="1"><rect width="270" height="270" stroke="none"/><rect x="0.5" y="0.5" width="269" height="269" fill="none"/></g><g transform="translate(42 -6)"><path d="M16.56.84C24.78.84,32.1-4.68,32.1-14.22c0-9.24-6.24-13.44-13.68-13.44a12.424,12.424,0,0,0-5.34,1.2l.84-9.42H30.06v-7.38H6.3L5.1-21.66l4.02,2.58c2.58-1.68,4.02-2.34,6.66-2.34,4.5,0,7.5,2.7,7.5,7.5,0,4.86-3.24,7.56-7.86,7.56-4.14,0-7.26-2.04-9.78-4.5L1.56-5.22A20.236,20.236,0,0,0,16.56.84Zm21.3,5.55c3.63-1.2,5.67-3.87,5.67-7.38,0-2.73-1.14-4.35-3.18-4.35A2.653,2.653,0,0,0,37.5-2.73,2.59,2.59,0,0,0,40.26-.12h.27c.03,1.68-1.26,3.24-3.6,4.11ZM62.79.84c9.12,0,15-7.98,15-22.68,0-14.58-5.88-22.26-15-22.26S47.73-36.48,47.73-21.84C47.73-7.14,53.67.84,62.79.84Zm0-6.9c-3.84,0-6.72-3.72-6.72-15.78,0-12,2.88-15.36,6.72-15.36s6.66,3.36,6.66,15.36C69.45-9.78,66.63-6.06,62.79-6.06ZM98.13.84c9.12,0,15-7.98,15-22.68,0-14.58-5.88-22.26-15-22.26S83.07-36.48,83.07-21.84C83.07-7.14,89.01.84,98.13.84Zm0-6.9c-3.84,0-6.72-3.72-6.72-15.78,0-12,2.88-15.36,6.72-15.36s6.66,3.36,6.66,15.36C104.79-9.78,101.97-6.06,98.13-6.06ZM133.47.84c9.12,0,15-7.98,15-22.68,0-14.58-5.88-22.26-15-22.26s-15.06,7.62-15.06,22.26C118.41-7.14,124.35.84,133.47.84Zm0-6.9c-3.84,0-6.72-3.72-6.72-15.78,0-12,2.88-15.36,6.72-15.36s6.66,3.36,6.66,15.36C140.13-9.78,137.31-6.06,133.47-6.06Z" transform="translate(766 954)" fill="#fff"/><path d="M15.04-10.592v-1.872H.976v1.872H4.7C4.592-6.736,4.464-2.48.352-.176A5.694,5.694,0,0,1,1.728,1.36C4.7-.432,5.856-3.2,6.352-6.16H11.68c-.176,3.424-.432,4.992-.848,5.392a1.029,1.029,0,0,1-.752.208c-.48,0-1.568,0-2.672-.1A4.573,4.573,0,0,1,8.08,1.216,19.559,19.559,0,0,0,10.864,1.2,2.319,2.319,0,0,0,12.576.4c.624-.7.9-2.64,1.136-7.552.032-.24.048-.848.048-.848H6.576c.08-.864.112-1.744.144-2.592Zm7.632-2.592c-.112,2.112.112,9.376-6.272,12.912A6.668,6.668,0,0,1,18,1.248a13.663,13.663,0,0,0,5.92-8.032,12.688,12.688,0,0,0,6.3,8.032A6.254,6.254,0,0,1,31.7-.368c-5.968-2.8-6.768-9.7-6.9-11.9.016-.336.032-.656.048-.912Zm19.216,5.36a16.313,16.313,0,0,0-2.528-3.84l-1.728.864a16.306,16.306,0,0,1,2.384,3.968ZM38.96-4.992c-.8.32-1.616.656-2.416.992l-.288-8.656-1.984.08.32,9.344c-.8.32-1.52.576-2.128.784L33.1-.416c1.808-.752,4.176-1.76,6.288-2.7ZM47.648-.208A34.9,34.9,0,0,0,44.1-4.32a24.731,24.731,0,0,0,1.952-8.128l-2.1-.192C43.36-6.064,41.712-2.192,36.64-.272a11.187,11.187,0,0,1,1.52,1.68A11.424,11.424,0,0,0,43.024-2.48a29.355,29.355,0,0,1,2.992,3.856Zm8.864-1.1V-6.848H62.16V-8.784H56.512V-13.36H54.464V-1.312H48.736V.608H63.28v-1.92Z" transform="translate(810 983)" fill="#fff"/></g><g transform="translate(43)"><path d="M-23.68-12.98l-2.08-1.04a7.19,7.19,0,0,1-1.86.26h-6.32a20.353,20.353,0,0,1-2.24-.16v2.82c.72-.06,1.46-.08,2.26-.08h6.9c-.04,1.3-.74,5.54-1.12,7.72H-36.4a13.43,13.43,0,0,1-1.98-.16v2.9c.68-.06,1.38-.1,1.98-.1h13.34a15.507,15.507,0,0,1,1.86.1v-2.9a15.386,15.386,0,0,1-1.86.16h-2.16c.38-2.24,1.1-6.8,1.34-8.62A8.616,8.616,0,0,1-23.68-12.98Zm5.72,3.72v3.14c.74-.06,2.08-.1,3.22-.1H-4c.84,0,1.86.08,2.34.1V-9.26c-.52.04-1.4.12-2.34.12H-14.74C-15.78-9.14-17.24-9.2-17.96-9.26Zm34.1-6.3-1.34.44a26.483,26.483,0,0,1,1.02,2.74l1.38-.44A20.279,20.279,0,0,0,16.14-15.56Zm2.06-.64-1.36.44a17.913,17.913,0,0,1,1.08,2.72l1.38-.44C19.04-14.24,18.58-15.4,18.2-16.2ZM14.42-8.54V-9.2h1.5c1.04,0,1.74.02,2.18.06V-11.8a11.851,11.851,0,0,1-2.2.14H14.42v-2.1a12.846,12.846,0,0,1,.14-1.86H11.7a13.2,13.2,0,0,1,.12,1.86v2.1H7.08v-1.96a15.95,15.95,0,0,1,.12-1.82H4.36c.06.62.12,1.22.12,1.8v1.98H2.78a13.224,13.224,0,0,1-2.16-.18v2.72c.44-.02,1.16-.08,2.16-.08h1.7v2.72a16.175,16.175,0,0,1-.12,2.1h2.8c-.02-.4-.08-1.2-.08-2.1V-9.2h4.74v.76c0,4.92-1.7,6.64-5.56,8L8.4,1.58C13.24-.56,14.42-3.58,14.42-8.54Zm7.22-.72v3.14c.74-.06,2.08-.1,3.22-.1H35.6c.84,0,1.86.08,2.34.1V-9.26c-.52.04-1.4.12-2.34.12H24.86C23.82-9.14,22.36-9.2,21.64-9.26Z" transform="translate(842 872)" fill="#fff"/><rect width="30" height="1" transform="translate(754 864)" fill="#fff"/><rect width="30" height="1" transform="translate(900 864)" fill="#fff"/></g><path d="M9.375,21.875a6.25,6.25,0,1,0-6.25-6.25A6.256,6.256,0,0,0,9.375,21.875Zm43.75,0a6.25,6.25,0,1,0-6.25-6.25A6.256,6.256,0,0,0,53.125,21.875ZM56.25,25H50a6.232,6.232,0,0,0-4.4,1.816A14.284,14.284,0,0,1,52.93,37.5h6.445A3.122,3.122,0,0,0,62.5,34.375V31.25A6.256,6.256,0,0,0,56.25,25Zm-25,0A10.938,10.938,0,1,0,20.313,14.063,10.932,10.932,0,0,0,31.25,25Zm7.5,3.125h-.811a15.1,15.1,0,0,1-13.379,0H23.75A11.253,11.253,0,0,0,12.5,39.375v2.813a4.689,4.689,0,0,0,4.688,4.688H45.313A4.689,4.689,0,0,0,50,42.188V39.375A11.253,11.253,0,0,0,38.75,28.125ZM16.9,26.816A6.232,6.232,0,0,0,12.5,25H6.25A6.256,6.256,0,0,0,0,31.25v3.125A3.122,3.122,0,0,0,3.125,37.5H9.561A14.32,14.32,0,0,1,16.9,26.816Z" transform="translate(853 781.875)" fill="#fff"/></g></svg>