<svg xmlns="http://www.w3.org/2000/svg" width="270" height="270" viewBox="0 0 270 270"><g transform="translate(-753 -751)"><g transform="translate(753 751)" fill="rgba(255,255,255,0.1)" stroke="#fff" stroke-width="1"><rect width="270" height="270" stroke="none"/><rect x="0.5" y="0.5" width="269" height="269" fill="none"/></g><g transform="translate(841.973 877)"><path d="M23.52,1.12c12,0,19.92-6.88,19.92-15.84,0-7.76-4.56-12-9.92-15.04v-.4c3.76-2.64,7.6-7.28,7.6-12.96,0-9.44-6.72-15.68-17.2-15.68-10.24,0-17.84,6.08-17.84,15.6,0,6.08,3.36,10.32,7.84,13.6v.32C8.48-26.4,3.76-21.84,3.76-14.72,3.76-5.44,12.24,1.12,23.52,1.12Zm3.76-34.16c-6.16-2.4-10.8-4.88-10.8-10.16,0-4.72,3.2-7.28,7.2-7.28,4.96,0,7.84,3.36,7.84,8.16C31.52-39.04,30-35.92,27.28-33.04ZM23.84-7.2c-5.52,0-9.92-3.44-9.92-8.8,0-4.08,2.32-7.6,5.44-10.08,7.6,3.12,13.12,5.2,13.12,10.96C32.48-10,28.88-7.2,23.84-7.2Z" transform="translate(0 93)" fill="#fff"/><path d="M11.536-11.056h.848v7.12c0,1.248.1,1.552.32,1.824a1.229,1.229,0,0,0,.9.352h.656a1.176,1.176,0,0,0,.768-.224,1.3,1.3,0,0,0,.4-.768,14.742,14.742,0,0,0,.16-2.048,3.741,3.741,0,0,1-1.136-.64c0,.816-.032,1.44-.048,1.744a1.9,1.9,0,0,1-.08.48.14.14,0,0,1-.144.08h-.112a.1.1,0,0,1-.112-.08A2.982,2.982,0,0,1,13.92-3.9V-12.64H10.064v4.464c0,1.792-.1,4.128-1.184,5.744a5.506,5.506,0,0,1,1.168,1.04c1.28-1.84,1.488-4.736,1.488-6.784ZM8.016-9.408a24.985,24.985,0,0,1-.624,4.192,26.111,26.111,0,0,1-.528-2.976c.064-.4.128-.8.192-1.216Zm.624-1.664-.272.032H7.232c.08-.784.144-1.584.192-2.384l-1.536-.112a32.621,32.621,0,0,1-.912,6.944l-.192-.88-.928.352V-8.96h1.1V-10.7h-1.1v-2.832H2.208V-10.7H.64V-8.96H2.208v2.448c-.688.256-1.328.48-1.856.656L.816-4.128l1.392-.56v4.16c0,.208-.064.272-.256.272-.176,0-.752,0-1.312-.016A6.2,6.2,0,0,1,1.1,1.392,4.112,4.112,0,0,0,3.232,1.04C3.7.768,3.856.3,3.856-.528V-5.344l.832-.336c-.128.32-.272.624-.416.912a9.1,9.1,0,0,1,1.216,1.1A9.335,9.335,0,0,0,6.08-5.056a19.543,19.543,0,0,0,.576,2.064A6.658,6.658,0,0,1,4.192.1a5.967,5.967,0,0,1,1.04,1.312A7.988,7.988,0,0,0,7.52-1.184a5.093,5.093,0,0,0,4.816,2.336H15.1A6.187,6.187,0,0,1,15.632-.5c-.608.032-2.656.032-3.184.032a4.215,4.215,0,0,1-4.16-2.352,26.421,26.421,0,0,0,1.3-8.128ZM27.632-5.056H20.288V-7.088h7.344Zm1.936-3.792H24.9v-1.52h5.728v-1.776H24.9v-1.408H22.96v4.7H18.48V-3.3H29.568ZM18.256,1.328a10.217,10.217,0,0,0,2.08-3.52L18.5-2.64a8.811,8.811,0,0,1-2,3.12ZM21.12-2.08a22.9,22.9,0,0,1,.32,3.36l1.936-.24a21.435,21.435,0,0,0-.448-3.3Zm3.264.016A19.826,19.826,0,0,1,25.5,1.2l1.84-.48a17.366,17.366,0,0,0-1.216-3.168Zm3.248-.1A17.693,17.693,0,0,1,29.6,1.28l1.84-.7a18.7,18.7,0,0,0-2.1-3.344Z" transform="translate(55 85)" fill="#fff"/></g><g transform="translate(797.957 849.82)"><path d="M-21.74-16.8H-23.9v7.96c0,.24-.08.32-.38.32-.28.02-1.24.02-2.14-.02a7.378,7.378,0,0,1,.7,1.88,8.41,8.41,0,0,0,3.06-.32c.72-.3.92-.8.92-1.82Zm-4.34.66H-28.2v6.66h2.12ZM-23.74-4.3a23.273,23.273,0,0,1-2.84,1.72A7.318,7.318,0,0,1-28-4.3ZM-37.3-13.34a7.779,7.779,0,0,0,.5-.8h1.9v.8ZM-23.02-4.3h2V-6.18h-7.8V-7.22h-2.12a2.608,2.608,0,0,0,.94-.2c.52-.24.66-.6.66-1.36v-2.26h-3.54v-.7h3.86v-1.6h-3.86v-.8h3.32v-1.52h-3.32v-1.28H-34.9v1.28h-1.14c.12-.28.22-.54.32-.82l-1.74-.44a8.7,8.7,0,0,1-1.56,2.88c.32.16.84.46,1.24.7H-39v1.6h4.1v.7h-3.3v3.92h1.8V-9.6h1.5v2.92h2.02V-9.6h1.64v.82c0,.16-.06.22-.24.22-.14,0-.62,0-1.08-.02a6.085,6.085,0,0,1,.58,1.38h.8v1.02h-7.78V-4.3h5.84A22.552,22.552,0,0,1-39.3-2.62,10.238,10.238,0,0,1-38.04-.9a22.787,22.787,0,0,0,3.3-.84V-.62c-.72.08-1.4.16-1.98.22l.34,1.94c2.2-.32,5.18-.72,8-1.12l-.08-1.86c-1.34.18-2.7.36-4,.52V-2.66A15.059,15.059,0,0,0-30.1-4.08c1.5,3.18,4,5.06,8.16,5.86a8.208,8.208,0,0,1,1.3-1.9,13.516,13.516,0,0,1-4.34-1.34,26.961,26.961,0,0,0,3.3-1.84Zm14.56-8.38v1.7h-3.82a11.913,11.913,0,0,0,1.32-1.7Zm-5.32,1.7V-9H-.92v-1.98H-6.1v-1.7h4.36V-14.7H-6.1v-2.22H-8.46v2.22h-1.4a14.564,14.564,0,0,0,.62-1.54l-2.22-.5A10.908,10.908,0,0,1-14.3-12.1a14.818,14.818,0,0,1,1.98,1.12Zm3.92,4.96H-4.6v2.04H-9.86Zm7.74,3.94V-7.9H-12.18v5.82ZM-13.94-13.46a16.015,16.015,0,0,0-3.34-3.02l-1.76,1.44a15.135,15.135,0,0,1,3.22,3.16Zm-.5,4.28h-4.62V-7h2.3v4.22A26.266,26.266,0,0,1-19.5-.94l1.16,2.48c1.1-.84,1.98-1.62,2.86-2.4,1.3,1.56,2.94,2.12,5.4,2.22,2.38.1,6.4.06,8.8-.06A12.456,12.456,0,0,1-.54-1.1c-2.66.2-7.16.26-9.5.16-2.08-.08-3.58-.62-4.4-1.96ZM11.3-2.04V-12.38h6.72v-2.48H2.04v2.48H8.58V-2.04H.96V.36H19.14v-2.4Zm24.48-11.8H30.62v-.96h5.16Zm0,2.52H30.62v-.96h5.16Zm2.2-5.12H28.52v6.76h9.46Zm1.36,9.52v-2H26.76v2h2.26A9.742,9.742,0,0,1,27.18-4.8l-.42-1.7-1.6.7v-4.72h1.88v-2.24H25.16V-16.7h-2.2v3.94h-2v2.24h2v5.64c-.94.38-1.78.72-2.46.98l.88,2.4c1.22-.6,2.66-1.32,4.1-2.04a8.238,8.238,0,0,1,1.56,1.4A12.428,12.428,0,0,0,29.38-4.1h1.18A12.065,12.065,0,0,1,26.48-.48,7.026,7.026,0,0,1,28.04.92,15.261,15.261,0,0,0,32.72-4.1H33.9A11,11,0,0,1,30.18.5a6.552,6.552,0,0,1,1.68,1.32,14.252,14.252,0,0,0,4-5.92h.78c-.22,2.42-.46,3.44-.74,3.74a.685.685,0,0,1-.6.22c-.26,0-.78,0-1.42-.06a4.743,4.743,0,0,1,.54,1.86,12.571,12.571,0,0,0,2.02-.04A1.865,1.865,0,0,0,37.76.94c.54-.58.86-2.18,1.14-6.08.02-.28.04-.82.04-.82H30.82c.2-.32.4-.64.56-.96Z" transform="translate(88 23)" fill="#fff"/><rect width="30" height="1" transform="translate(0 15)" fill="#fff"/><rect width="30" height="1" transform="translate(146 15)" fill="#fff"/></g><path d="M25,50H0V11.074H25V25H59.7V50ZM14.411,40.8v7.731h4.833V39.122H14.411ZM6.1,40.8v7.731H10.93V39.122H6.1Zm42.726,3.1h4.931V39.071H48.822Zm-7.172,0h4.93V39.071H41.65Zm-7.173,0h4.93V39.071h-4.93Zm-7.948,0H31.46V39.071H26.529ZM14.411,36.88h4.833V31.952H14.411Zm-8.315,0H10.93V31.952H6.1Zm42.727-1.289h4.931V30.758H48.822Zm-7.172,0h4.93V30.758H41.65Zm-7.173,0h4.93V30.758h-4.93Zm-7.948,0H31.46V30.758H26.529ZM14.411,29.708h4.833v-4.93H14.411Zm-8.315,0H10.93v-4.93H6.1Zm8.315-7.948h4.833V16.829H14.411Zm-8.315,0H10.93V16.829H6.1Zm43.038,2.076V17.3h-.245a1.041,1.041,0,0,1-.311-.049V15.178a1.082,1.082,0,0,1,.311-.05H55.02a.918.918,0,0,1,.1.011v2.147a.893.893,0,0,1-.1.01h-.393v6.541Zm-9.2,0V17.3h-.245a1.089,1.089,0,0,1-.31-.049V15.178a1.089,1.089,0,0,1,.31-.05h6.133a.76.76,0,0,1,.1.011v2.147c-.036,0-.069.01-.1.01h-.394v6.541ZM41.359,8.3s-.279-5.372,7.123-4.535c0,0,5.447,2.374,7.261-3.769,0,0,3.49,7.528-7.192,8.3,0,0-7.053.634-7.192,4.824Z" transform="translate(855.979 783)" fill="#fff" stroke="rgba(0,0,0,0)" stroke-miterlimit="10" stroke-width="1"/></g></svg>