<svg xmlns="http://www.w3.org/2000/svg" width="270" height="270" viewBox="0 0 270 270"><g transform="translate(-753 -751)"><g transform="translate(753 751)" fill="rgba(255,255,255,0.1)" stroke="#fff" stroke-width="1"><rect width="270" height="270" stroke="none"/><rect x="0.5" y="0.5" width="269" height="269" fill="none"/></g><g transform="translate(822 877)"><path d="M14-39.68c0-6.88,3.6-10.24,8-10.24,4.88,0,8.88,3.68,10.08,13.36-2.72,4.48-6.48,6.32-9.6,6.32C17.28-30.24,14-33.2,14-39.68Zm6.24,40.8c11.92,0,22.88-9.52,22.88-31.52,0-19.84-10.08-28.4-21.28-28.4C11.68-58.8,3.2-51.44,3.2-39.68c0,12.08,7.12,17.84,17.04,17.84,3.84,0,8.88-2.4,12.16-6.48C31.92-13.44,26.32-8.48,19.52-8.48a12.775,12.775,0,0,1-9.12-4.24L4.16-5.6A21.816,21.816,0,0,0,20.24,1.12Zm50.48,0c12.16,0,20-10.64,20-30.24,0-19.44-7.84-29.68-20-29.68S50.64-48.64,50.64-29.12C50.64-9.52,58.56,1.12,70.72,1.12Zm0-9.2c-5.12,0-8.96-4.96-8.96-21.04,0-16,3.84-20.48,8.96-20.48s8.88,4.48,8.88,20.48C79.6-13.04,75.84-8.08,70.72-8.08Z" transform="translate(0 93)" fill="#fff"/><path d="M8.512-12.832H6.16a11.841,11.841,0,0,1,.112,1.472c0,.48-.016.944-.032,1.392H3.952c-.608,0-1.44-.048-2.112-.112v2.1c.688-.064,1.568-.064,2.112-.064H6.064a9.409,9.409,0,0,1-2.64,5.7,9.534,9.534,0,0,1-2.1,1.568L3.184.72C6.048-1.312,7.568-3.824,8.16-8.048h3.6c0,1.728-.208,4.928-.672,5.936a.851.851,0,0,1-.912.56,13.243,13.243,0,0,1-2.24-.224L8.192.368C8.96.432,9.92.5,10.832.5A1.97,1.97,0,0,0,12.9-.736c.688-1.632.88-6.1.944-7.824a6.542,6.542,0,0,1,.112-.848L12.56-10.08a7.437,7.437,0,0,1-1.2.112H8.352c.032-.464.048-.944.064-1.44C8.432-11.792,8.464-12.464,8.512-12.832ZM24.8-5.536h1.488l-.976.5A12.182,12.182,0,0,1,26.4-3.648H24.8Zm2.192,1.888.832-.464a12.348,12.348,0,0,0-1.2-1.424h.88v-1.6H24.8v-1.5h3.056V-10.3H20V-8.64h3.04v1.5H20.4v1.6h2.64v1.888H19.824V-2.1h8.288V-3.648ZM19.2-1.168V-11.184h9.472V-1.168Zm-1.936-11.76V1.392H19.2v-.8h9.472v.8H30.7v-14.32Z" transform="translate(100 85)" fill="#fff"/></g><g transform="translate(797.957 855.618)"><path d="M-34.12-12.46h-2.14v-1.82h2.14Zm0,3.62h-2.14V-10.7h2.14Zm0,3.62h-2.14V-7.08h2.14Zm2.2-10.94h-6.46V-3.32h6.46Zm-5.48,13A9.108,9.108,0,0,1-39.56.54,15.294,15.294,0,0,1-37.7,1.82a13.377,13.377,0,0,0,2.48-4.48Zm7.92,2.84A21.942,21.942,0,0,0-28.4-7.1a20.508,20.508,0,0,0,1.9,4.46A8.789,8.789,0,0,1-29.48-.32Zm5.7-8.56a15.76,15.76,0,0,1-1.4,4.24,17.341,17.341,0,0,1-1.66-4.24Zm1.06-2.1-.38.04h-5.28v-2.82h7.18V-15.9h-9.36v7.5a19.64,19.64,0,0,1-1.1,7.52,16.815,16.815,0,0,0-1.48-2.34l-1.84.78A14.2,14.2,0,0,1-33.48.34l1.62-.8A6.8,6.8,0,0,1-32.48.58a9.652,9.652,0,0,1,1.9,1.22A9.153,9.153,0,0,0-29.54-.16,8.125,8.125,0,0,1-28.26,1.7,11.759,11.759,0,0,0-25.1-.72a10.975,10.975,0,0,0,3.14,2.5,8.25,8.25,0,0,1,1.52-1.9,9.513,9.513,0,0,1-3.28-2.46,20.212,20.212,0,0,0,2.4-8.1Zm11.4-.9H-16.9V-9.8H-3.02v-2.08H-8.86v-1.3h7.68v-2.16H-8.86v-1.58h-2.46v1.58H-18.8v2.16h7.48Zm9.88,7.32V-8.82h-17.1v4.26h2.3V-6.68h12.4v2.12Zm-12.42-1.5c-.24,3.08-.74,4.88-5.48,5.8a7.019,7.019,0,0,1,1.3,2.06c5.46-1.3,6.34-3.84,6.66-7.86ZM-5.72-.64c-.72,0-.84-.08-.84-.7V-6.06h-2.4v4.74c0,2.14.58,2.82,2.9,2.82h2.58C-1.6,1.5-.98.76-.72-2.12a6.831,6.831,0,0,1-2.14-.9c-.08,2.04-.2,2.38-.86,2.38ZM3.82-11.52V-13.1H16.06v1.58H11.08v-1.14H8.7v1.14ZM18.8-3.16V-5.22H10.9a6.79,6.79,0,0,0,.16-1.26h5.46V-8.4H11.08V-9.6h5.84v-1.32h1.6v-4.26H11.2v-1.74H8.76v1.74H1.46v4.26H3.24V-9.6H8.7v1.2H3.56v1.92H8.68a9.166,9.166,0,0,1-.2,1.26H1.3v2.06H7.32C6.22-1.98,4.3-.94.94-.18A9.706,9.706,0,0,1,2.42,1.74C6.5.64,8.72-.94,9.9-2.72c1.58,2.48,3.96,3.9,7.76,4.5A9.253,9.253,0,0,1,19.06-.3c-3.16-.34-5.4-1.26-6.82-2.86ZM32.3-13.9H28.76v1.38H32.3v.68H27.78v1.48H39.22v-1.48H34.68v-.68h3.68V-13.9H34.68v-.68h4.16v-1.44H34.68v-.9H32.3v.9H28.28v1.44H32.3ZM21.34-5.24A14.577,14.577,0,0,1,20.32-.6a9.991,9.991,0,0,1,1.74.84,18.358,18.358,0,0,0,1.18-5.16Zm5.32-1.38a10.884,10.884,0,0,1,.28,1.08l1.78-.8A17.258,17.258,0,0,0,27-10.54l-1.7.68c.22.42.44.86.64,1.32l-1.86.12c1.26-1.6,2.62-3.58,3.72-5.26l-1.94-.9a32.243,32.243,0,0,1-1.8,3.24,10.06,10.06,0,0,0-.64-.78,45.027,45.027,0,0,0,2.26-4.08l-2.06-.72a24.541,24.541,0,0,1-1.44,3.46c-.16-.14-.32-.28-.46-.42l-1.16,1.6a18.406,18.406,0,0,1,2.28,2.8c-.3.42-.6.82-.9,1.18l-1.44.08.16,2.06,2.86-.2v8.1h2.04V-6.52ZM25.78-4.9a14.907,14.907,0,0,1,.92,3.6l1.76-.58A14.878,14.878,0,0,0,27.44-5.4Zm5.36,1.1H36v.84H31.14Zm0-2.22H36v.86H31.14Zm0-2.2H36v.84H31.14Zm7.12,6.74v-8.2H29.02v8.2h1.74A15.553,15.553,0,0,1,26.82.34c.44.42,1.1,1.06,1.46,1.48A17.733,17.733,0,0,0,33.08-.6l-1.34-.88h3.64l-1.24.9a34.641,34.641,0,0,1,3.3,2.34L39.52.64c-.8-.56-2.18-1.4-3.4-2.12Z" transform="translate(88 23)" fill="#fff"/><rect width="30" height="1" transform="translate(0 15)" fill="#fff"/><rect width="30" height="1" transform="translate(146 15)" fill="#fff"/></g><path d="M28.57,52.678a25,25,0,1,1,25-25A25,25,0,0,1,28.57,52.678Zm20.262-27.1a.156.156,0,0,0,.078-.109.761.761,0,0,0,.241.439c0,.016,0,.013,0,.034.013,0,.022-.009.033-.009a.756.756,0,0,0,.477.178.77.77,0,0,0,.653-.377.376.376,0,0,1,.033.038c0-.025,0-.05-.008-.075a.758.758,0,0,0,.1-.367.783.783,0,0,0-.781-.781.772.772,0,0,0-.644.362c-.006,0,0-.023-.017-.017a.707.707,0,0,0-.12-.373v.809a.817.817,0,0,1-.05.248Zm-35.9-.234c0-.236-.537-.637-.677-.637,0-.042-.219-.523-.3-.523,0-.163-.57-.892-.661-.573-.059.206.436.484.436.723.092,0,.48.734.556.862.847,1.431-.633.453-.633-.153a1.992,1.992,0,0,1-.488-1.011,3.23,3.23,0,0,1-.412-.784c0-.456-.252-.675-.752-.675-.023-.045-.444-.636-.452-.636a1.655,1.655,0,0,0-.525-.861,6.057,6.057,0,0,1-.111-1.272,4.31,4.31,0,0,0-.166-1.337A21.8,21.8,0,0,0,21.064,48.2c.009-.775.067-1.7.244-1.7,0-.116.1-.6.188-.6a9.468,9.468,0,0,0,0-1.011c-.111-.223.147-.509.225-.861.433-.217.127-2.4.453-2.4a14.843,14.843,0,0,0,.073-2.733c.083,0-.492-.611-.487-.6-.552,0-.937-.884-.937-1.272a2.358,2.358,0,0,1-.189-.636c.127,0-.789-1.338-.789-1.311-.484-.269.027-.644.075-1.084-.42-.139,0-1.273.187-1.273a.352.352,0,0,1,.227-.3c.094.373.53-.186.188-.186,0-.247-.028-.775,0-.9,0-.381-.338-1.128-.6-.337-.281-.139-.991-.114-1.052-.561.044-.22-.4-.67-.562-.748.147-.384-.761-.9-1.089-.9,0-.083-.173-.045-.225-.15-.334,0-.411-.45-.789-.45-.436,0-.875-.3-1.277-.3-.134-.267-.758-.162-.9-.45-.327,0-.455-.619-.464-.847-.014-.281-.238-1.253-.628-1.253Zm31.65-12.539a.079.079,0,0,1-.013.034c.023,0,.052.027.078.037C44.625,12.858,44.6,12.834,44.583,12.809Zm.47.517a.5.5,0,0,1,.083.266c.055,0,.081-.028.125-.039C45.194,13.476,45.12,13.4,45.053,13.326Zm1.358,7.119c.025-.675-.562-.562-.748-.937-.194,0-.264-.15-.527-.15a.322.322,0,0,0-.4.122c-.4.153-.159-.2-.461-.2.014-.386-.139-.492-.564-.45-.244.55-.619.88-.562,1.5.18.041.148.081.112.261.239.012,1.689-.075,1.689-.225.05,0,.3.517.3.075.2,0,.308.473.789.336,0,.1.8-.334.373-.334Zm.077,7.973c.028-.137-.069-.2-.15-.337.214,0-.677-1.652-.677-1.909-.136-.067-.309-.539-.341-.711a1.8,1.8,0,0,1-.45-.748,2.714,2.714,0,0,1-.712-.936c.269.03.675.084.675-.263-.181,0-.208-.223-.036-.223-.056-.23.122-.4.161-.575A4.237,4.237,0,0,0,45.1,21.9a1.238,1.238,0,0,0-.525.112c0,.152-.458-.037-.525-.037-.1-.2-.812.256-1.013-.15-.323-.292-.236-.517-.341-.93-.053-.209-.339-.222-.513-.256-.489-.1-.136.583-.163.737.3,0-.189.372-.189.561-.506-.109-.337-.673-.636-.823-.089-.15-.019-.263-.227-.263,0-.2.106-.562-.112-.636,0-.1-.425-.136-.487-.263-.269,0-.894-1.016-1.086-.673-.12.219.1.272.147.45.389-.077.352.641.827.561a1.3,1.3,0,0,0,.036.3c.352-.083.311.261.487.261-.128.17-.534-.272-.423.1.064.216.028.4-.252.611,0-.233-.019-.861-.263-.861-.166-.331-.658-.252-.866-.561-.169,0-.234-.525-.525-.561a.587.587,0,0,1-.339.15c-.158.317-1.05.033-1.05.075-.014,0-.5,1.191-.528,1.347-.055.336-.325.342-.406.661-.041.159-1.02.084-1.02.2a1,1,0,0,1-.789-.9,7.049,7.049,0,0,1,.152-1.348c.086.023.1.053.152.15.259-.1.864.064.864-.225q.377.009.225.3c.234.044.639.1.639-.225-.138,0-.152-.013-.152-.15.45-.467-.338-.889-.338-1.122-.159-.053-.484-.4-.253-.269.2.108.909.331.628-.144a.052.052,0,0,0,.036-.036c.08.056.416.4.416.075.092,0,.448-.225.15-.225.028-.169.022-.309.036-.413.477.256.211-.175.452-.336,0,.311.256-.15.412-.15.186-.277.611-.062.714-.375-.23-.075-.188-.65-.188-.859.277.045.584-.373.627-.086.016.111.03.417.086.459.411.216.3-.123.3-.336-.138,0-.32-.481-.339-.713-.112.016-.294.063-.339.148-.409,0-.687-.148-1.013-.148a5.805,5.805,0,0,1-.375-.488c-.228-.392.228-.278.3-.3,0-.372,1.548-.306,1.616-.9-.509,0,.525-.862.525-.859.345-.3.528-.55.958-.583.181-.013,2.2-.569,2.2-.317.081,0,.35.006.628.016a21.778,21.778,0,0,0-29.359-.339.553.553,0,0,1,.059.206c.2-.014.5-.145.564.114a1.284,1.284,0,0,1-.3-.039c.072.58-.253.225-.525.225a.756.756,0,0,0-.248-.1c-.083.078-.17.152-.253.23.009.025,0,.027.011.055.088,0,.042.136.292.219a5.569,5.569,0,0,0,.911.2,2.9,2.9,0,0,0,.6-.045c0-.031.516-.261.152-.261.05-.206-.042-.258-.264-.261.019-.219.539-.075.752-.075.163-.273,0-.241.148-.489.172-.3.377-.041.489-.333a.524.524,0,0,1,.377.37c.136.112.827,1.131.827.411.247.083.37.545.375.787.448-.066.487-.4.487-.75.1,0-.038-.167-.038-.225.167-.061.377.159.377-.073.072,0,.075.072.075.15.233.045.383-.027.525.023.1.034.048.545,0,.725-.056.228-.492.231-.492.337-.494.369.583.561.752.786a2.077,2.077,0,0,1-.487-.073c-.244,0-.834.258-1.052.073.3,0,.4-.364.452-.711a.537.537,0,0,0-.687.345c-.131.459-.436-.019-.589.291-.059.019-.6.27-.6.186-.609.086-.45.6-.45,1.161.242.145.734.559.713.786.547.1.747.155,1.239.225a.6.6,0,0,0,.3.186c0,.322.292.264.563.264,0-.411.478.342.525.486-.066,0,.113.42.15.563-.075-.027-.1,0-.075.075.237.087.614.063.677-.187-.228,0-.152-.261-.152-.413a.282.282,0,0,1,.037-.523c0,.212.773-.133.337-.3a.842.842,0,0,0,0-.814c-.111-.131-.25,0-.3-.2.3-.073.078-.636.075-.9.094-.036.338.059.338,0,.289,0,.77.366.939-.077.483.22.1.43.6.262a2.169,2.169,0,0,0,.639.673c0,.027-.014.187.111.187,0,.12-.075-.069-.075.148.07.008.452.077.452-.073.242,0,.413-.3.413-.523.152-.1.417.823.6.823.134.209.564.514.564.711.091.092.186.067.186.337.114,0,.339-.448.339-.038a.71.71,0,0,1,.452.411c-.27,0-.014.262-.153.262,0,.259-.58.053-.711.038-.18.8-1.264.227-1.92.434a2.237,2.237,0,0,0-1.048,1.25c.419,0,.6-.362.977-.487.3,0,.364-.184.639-.261,0,.077.075.036.075.112-.534,0-.209.345-.053.6a.644.644,0,0,0,.331.28,1.487,1.487,0,0,0-.127.283s0,0,0,0c-.1.034-.3.108-.339.188-.6.067-.306.027-.266-.119.022.052.239,0,.23.006-.036-.181-.091-.156-.037-.261-.328,0-.487.15-.752.15-.044.089-.273.3-.375.3a1.777,1.777,0,0,1-.452.786c0-.061-.534.336-.487.336-.119.192-.248.186-.3.486a2.521,2.521,0,0,0-.187.6c-.233.155-.319.786-.714.786-.242.481-.677.417-.677,1.048a3.3,3.3,0,0,1,.248,1.027c.056.264.144.539-.209.545-.025-.039-.272-.413-.227-.413a2.382,2.382,0,0,0-.3-.8c-.148-.208-.423.033-.639-.058-.092-.184-.716-.225-.937-.225.036.139.137.183.15.337a.852.852,0,0,1-.481.133c-.327-.045-.288-.3-.647-.264a1.085,1.085,0,0,0-.977,1.1,3.308,3.308,0,0,0,0,1.123c0,.317.263.547.263.786.255,0,.541.561.789.561.028.2-.125.23.3.227,0-.022.231-.145.262-.3-.294-.072,0-.45.188-.523,0,.267.375-.089.375-.112.042-.017.414-.15.414-.15,0-.3.283.03.075.15-.2,0-.187.337-.3.337-.048.241-.144.45-.2.684-.072.289.163.319.087.589a4.7,4.7,0,0,0,.9,0,.265.265,0,0,0-.038-.15c.436,0,.038.823.3.823,0,.311.15.553.15.748a.5.5,0,0,1,.263.561c.25.033.788.1.788-.225.38,0,.406.258.378.523.756,0,.283-.748.6-.748.03-.123.081-.145.155-.064.155.083.272-.155.4-.23a1.018,1.018,0,0,1,.2-.106c.106.064.116.045.163.117a1.126,1.126,0,0,0,.591-.239c.27.033.183.614.689.65a1.8,1.8,0,0,0,.848-.05c.044-.03.2.1.222.158.169,0,.156.147.228.144a.061.061,0,0,0,.077.036c.022.064.156.083.227.261,0,.162.337.191.337.3.242.122-.083.155.289.267a2.7,2.7,0,0,0,.614.183c.07-.267.3.036.414.036.059.122.091.03.148.15.348.291.119.178.262.487.167.109.22.491.266.711-.134,0-.039.514-.039.562-.162,0,.416.308.416-.077.237.039.394.3.562.3-.1.227.263.4.263.039.356.036.261.567.227.748.264,0,.341-.147.566-.175a1.528,1.528,0,0,1,.823-.267A1.561,1.561,0,0,1,31.7,35.49,1.543,1.543,0,0,1,30.37,37a2.733,2.733,0,0,1-.2.212c0,.075-.017.822-.039.822,0,.15-.114.973-.225.973,0,.423-.277.5-.375.9-.228.169-.845.45-.941.636-.177,0-.308.15-.487.15-.025.052-.408.412-.339.412-.028.266.02.891-.123,1.066-.1.116-.236.1-.175.284-.211,0,.013.15-.32.15a.743.743,0,0,0-.594.552.832.832,0,0,1-.362.722c0,.106-.487.138-.487.413.045,0,0,.509,0,.561a.888.888,0,0,0-.562.261c-.491,0-.431.05-.75.263,0,.066-.045.3-.112.3,0,.38-.27.034-.489.227.086,0,.2.373.15.373,0,.33-.2.358-.413.6-.1.066-.192.337-.263.337,0,.222-.111.423-.111.636.047,0,0,.1.036.184.1-.03.108-.148.15-.148,0-.187.3.111.112.111-.155.234-.322.239-.414.563-.094,0-.175.091-.244.2a21.747,21.747,0,0,0,24.122-9.194,6,6,0,0,1,.17-1.264c.153.112.267.323.375,0-.27-.053-.2-.147-.113-.373a.947.947,0,0,0,.48.128c.052-.1.092-.2.144-.3-.153-.119.058-.427.131-.277.039-.075.073-.153.109-.228-.017,0-.013.006-.038,0,0-.136.025-.119.114-.188a.138.138,0,0,0,0,.027,21.76,21.76,0,0,0,2.152-9.412c0-.111-.016-.217-.017-.328-.041.153-.117.319-.225.356,0,.1-1.117.584-1.05.786-.2,0-.888.2-1.014.448a1.743,1.743,0,0,0-.752.3c-.7,0-.564-.822-.9-.822Zm3.177-8.553h-.83c-.006-.008-.013-.009-.019-.02-.042,0-.219-.4-.15-.487a1.11,1.11,0,0,1,.134.009c-.07-.172-.147-.341-.223-.511a1.079,1.079,0,0,1-.55.277c0,.064-.333.711,0,.711a.114.114,0,0,0,.009.033.777.777,0,0,0,.066,1.552h.308c.019.142.1.266.369.327.086.361.73.489.827.111-.272,0-.183-.261-.159-.437h.219a.781.781,0,0,0,0-1.562ZM47.388,30.025c.055,0,.416-.006.416-.07a3.818,3.818,0,0,0,1.089-.152c0,.484-.408.755-.339,1.236-.27,0-.152.278-.152.373-.175.108-.2.3-.412.413,0,.217-.487.577-.631.762-.163.208-.652.569-.716.833.017-.062-.894.948-.681.948,0,.189-.256,1.684.075,1.684,0,.131.283,1.386.111,1.386,0,.4-.263.65-.263.972-.128.087-.311.136-.375.264-.23,0-.341.487-.45.487,0,.52-.152.906-.152,1.5.042,0-.3.842-.3.9-.277.186-.977.853-.977,1.2,0,0-.487.684-.562.786a4.837,4.837,0,0,0-1.278.3c-.241,0-.862.189-1.013-.037,0-.237-.13-.539-.15-.862-.116,0-.134-.486-.263-.486a12.909,12.909,0,0,1-.6-1.536,2.515,2.515,0,0,0-.15-.636c0-.516-.377-.945-.377-1.422-.111,0-.341-1.047-.225-1.047a11.739,11.739,0,0,1,.272-1.52,3.617,3.617,0,0,0-.159-1.552c-.064,0-.28-.358-.3-.448a1.138,1.138,0,0,1-.413-.972,2.532,2.532,0,0,0,.227-1.348,1.678,1.678,0,0,0-.941-.112c-.242-.486-1.869-.186-2.33-.186,0,.266-1.133-.052-1.239-.263-.277,0-.825-.588-.825-.861a3.082,3.082,0,0,1-.788-1.534c-.262-.131-.183-.637-.039-.637a2.67,2.67,0,0,0-.153-.8c-.045-.158.153-.328.153-.516a2.258,2.258,0,0,1,.3-1.32,5.1,5.1,0,0,0,.3-.558c.156-.392.2-.019.414-.369.2-.1.319-.434.527-.6.091-.12.094-.17,0-.263a2.254,2.254,0,0,0,.263-.709c.294-.408.086-.222.375-.187.106-.116.283-.413.45-.413a.474.474,0,0,1,.414-.225c0,.225.612-.073.677-.073a1.729,1.729,0,0,1,.939-.45c0-.256,1.331.072,1.541.038v-.112c.284.067.8,1.208.75,1.461a2.928,2.928,0,0,1,.564,0c0,.242.456.3.664.313.289.014,1.138-.03,1.138-.425a.351.351,0,0,1,.378.411c.253.028,1.758.058,1.652.373.22,0,.277.377.487.377-.042.259.263.936.487.936a1.179,1.179,0,0,0,.339.784,2.741,2.741,0,0,0,.787,1.2c-.141.266.214.484.3.748-.02,0,.077.392.186.45,0,.266.559,1.348.866,1.348.02.131-.287.191.113.22Zm-8.111-8.383c.058-.223.189-.05.311-.009.289.094.189,0,.4-.1,0,.609-.35.147-.714.111Zm-.791-1.123c.153,0,.2.688-.225.561,0-.17-.108-.486.114-.486C38.439,20.859,38.486,20.751,38.486,20.518ZM38.3,20.07c.173.075.25.05.225-.075.228.075-.03.237-.075.413C38.333,20.292,38.369,20.251,38.3,20.07Zm-4.02-3.333c-.369-.1.38-.2.413-.3a.174.174,0,0,1-.162-.239c.056-.13.148.155.277.091.152-.016.45-.242.3.2s-.3.769-.861.777C34.041,17.059,34.235,16.953,34.28,16.737ZM35.67,15.2c.3,0,.037.225-.03.225.052.02-.009.2-.009.261.281,0,.286-.175.487-.225-.042.252-.323.3-.048.516.145.114.294.248.236.422.358,0,.411.344.338.748.2,0,.189.009.189-.189.192.053.178.227,0,.227-.178.352-.645.336-.977.336,0-.272-.055-.289-.306-.212-.344.1-.075-.273-.069-.461.037,0,.78.034.338-.112-.023-.4-.114-.523-.487-.523,0-.275-.1-.255-.142-.556C35.125,15.212,35.538,15.689,35.67,15.2Zm-.114,2.433c0,.092-.187.166-.225.036.036.013.05,0,.036-.036Zm-3.08-4.02H30.914a.781.781,0,1,1,0-1.563h1.562a.781.781,0,0,1,0,1.563Zm-9.1,13.828c.087,0,.189.034.189.112C23.449,27.556,23.3,27.664,23.374,27.443Zm-1.425.077c-.062.119-.569.1-.639-.039.188,0,.333.077.525,0,0-.1-.086-.186-.15-.3.2,0,.434.156.714.15,0-.173-.077.038,0-.187a.877.877,0,0,1,.413.411,5.573,5.573,0,0,0-.863-.036Zm-1.653-.9a1.053,1.053,0,0,1-.677-.337c.186.008.37.084.487-.112.477.048.519.377.9.377.072.127.481.417.086.455A.868.868,0,0,1,20.3,26.622Zm.3,1.048c-.139,0-.369.061-.263-.227C20.517,27.468,20.6,27.545,20.6,27.67Zm.262-.037-.225.037C20.655,27.5,20.819,27.3,20.858,27.633Zm1.389,1.645c-.03.1-.025.111-.148.111.013-.048.023-.1.036-.148l.112.038Zm-3.38-3.106c.036.013.075.027.113.037.048.186.15.094.262.037,0,.217-.5.28-.375-.075Z" transform="translate(859.43 786.072)" fill="#fff"/></g></svg>