<svg xmlns="http://www.w3.org/2000/svg" width="221.832" height="60.999" viewBox="0 0 221.832 60.999"><g transform="translate(-364 -203.501)"><g transform="translate(364 204)"><path d="M7.979,22.084.791,17.934A.526.526,0,0,0,0,18.425,63.829,63.829,0,0,0,8.708,45.378,63.864,63.864,0,0,0,27.7,66.394a.528.528,0,0,0,.821-.438v-8.3s.357-13.059-4.346-21.2S7.979,22.084,7.979,22.084" transform="translate(0 -6.485)" fill="#e54610"/></g><path d="M-5290.355-702.529v-8.3s-.359-13.06,4.346-21.205,16.192-14.369,16.192-14.369l7.187-4.149a.528.528,0,0,1,.791.493,63.822,63.822,0,0,1-8.708,26.951,63.825,63.825,0,0,1-18.988,21.017.519.519,0,0,1-.292.091A.527.527,0,0,1-5290.355-702.529Zm-23.192-48.457-7.188-4.151a.526.526,0,0,1,.032-.929A63.874,63.874,0,0,1-5293-762a63.893,63.893,0,0,1,27.7,5.933.527.527,0,0,1,.031.929l-7.19,4.151s-11.133,6.839-20.542,6.839S-5313.548-750.986-5313.548-750.986Z" transform="translate(5688.168 966)" fill="#e54610" stroke="rgba(0,0,0,0)" stroke-miterlimit="10" stroke-width="1"/><path d="M-5227.475-730.564V-762h21.7v6.514h-13.4v6.124h11.925v6.47h-11.925v5.813h13.757v6.514Zm-81.711,0v-8.585a6.556,6.556,0,0,0-.831-3.19L-5321-762h9.406l6.491,14.477,6.489-14.477h9.317l-10.792,19.772a6.568,6.568,0,0,0-.8,3.134v8.529Zm129.615,0-1.414-4.564h-11.164l-1.414,4.564h-8.632L-5190.876-762h8.619l11.318,31.434Zm-10.66-10.953h7.263l-3.6-12.829Zm-69.219,10.953V-762h12.745c10.218.138,14.581,3.977,14.581,12.837v5.761c0,8.878-4.5,12.836-14.581,12.836Zm8.3-6.514h4.445c4.4,0,6.189-1.831,6.189-6.322v-5.761c0-4.434-1.851-6.323-6.189-6.323h-4.445Zm-20.161,6.514-1.414-4.564h-11.164l-1.414,4.564h-8.629L-5282.617-762H-5274l11.319,31.434Zm-10.659-10.953h7.263l-3.6-12.829Z" transform="translate(5756.061 980.281)" fill="#1a1311" stroke="rgba(0,0,0,0)" stroke-miterlimit="10" stroke-width="1"/></g></svg>