<svg xmlns="http://www.w3.org/2000/svg" xmlns:xlink="http://www.w3.org/1999/xlink" width="300" height="120" viewBox="0 0 300 120">
  <defs>
    <clipPath id="clip-path">
      <rect id="長方形_67" data-name="長方形 67" width="96" height="55.526" transform="translate(0 0)" fill="none"/>
    </clipPath>
  </defs>
  <g id="_02" data-name="02" transform="translate(-428 -767)">
    <g id="長方形_66" data-name="長方形 66" transform="translate(428 767)" fill="#fff" stroke="#707070" stroke-width="1">
      <rect width="300" height="120" stroke="none"/>
      <rect x="0.5" y="0.5" width="299" height="119" fill="none"/>
    </g>
    <g id="icon" transform="translate(495 792)">
      <g id="グループ_145" data-name="グループ 145" transform="translate(-41 8)" clip-path="url(#clip-path)">
        <path id="パス_111" data-name="パス 111" d="M78.035,19.595a17.966,17.966,0,1,1-12.7,5.262,18.155,18.155,0,0,1,2.995-2.415l1.522,3.644a14.05,14.05,0,1,0,5.308-2.326l-1.514-3.624a17.974,17.974,0,0,1,4.393-.541m-8.874,2.342-2.8-6.715-19.8,23.62a1.925,1.925,0,0,1-1.612.688l-5.54-.009v-.008l-8.916,0-12.519-.021a1.927,1.927,0,0,1-1.64-2.94L29.744,14.9l0,0,1.886-3.044L28.526,4.8l-4.185-.348A1.934,1.934,0,1,1,24.659.6l10.851.9a1.934,1.934,0,1,1-.317,3.854l-2.284-.188,2.155,4.9,28.97-.4-2.8-6.7a1.942,1.942,0,0,1-.144-.859c0-.055-.007-.11-.007-.164A1.935,1.935,0,0,1,63.017,0H74.533a6.248,6.248,0,0,1,5.921,3.329A5.382,5.382,0,0,1,81.01,5.8a5.235,5.235,0,0,1-.662,2.473c-.973,1.733-2.953,3.005-5.92,2.839a1.93,1.93,0,0,1,.212-3.855,2.356,2.356,0,0,0,2.336-.873,1.364,1.364,0,0,0,.178-.644,1.543,1.543,0,0,0-.161-.718,2.549,2.549,0,0,0-2.46-1.152H65.8L71.454,17.4l6.463,15.473,1.9,4.552a1.932,1.932,0,0,1-3.568,1.482l-5.389-12.9ZM35.695,40.477A17.956,17.956,0,1,1,24.853,20.963l-2.074,3.345A14.1,14.1,0,1,0,31.76,40.474ZM33.513,16.139l-2.736,4.414-1.762,2.841L22.1,34.547l-.676,1.092,6.256.01a.538.538,0,0,0,.1.01l9.525,0,4.771.008ZM31.77,34.695a14.07,14.07,0,0,0-3.837-7.1c-.079-.079-.16-.158-.24-.234l2.073-3.345c.311.271.611.551.9.843A17.925,17.925,0,0,1,35.7,34.7Zm13.792-.683L62.731,13.535l-25.988.357Z" fill="#332c2b"/>
      </g>
      <text id="電動アシスト自転車" transform="translate(65 43)" fill="#1c1918" font-size="16" font-family="NotoSansJP-Bold, Noto Sans JP" font-weight="700"><tspan x="0" y="0">電動</tspan><tspan y="0">アシスト</tspan><tspan y="0">自転車</tspan></text>
    </g>
  </g>
</svg>
