<svg xmlns="http://www.w3.org/2000/svg" xmlns:xlink="http://www.w3.org/1999/xlink" width="130" height="100" viewBox="0 0 130 100">
  <defs>
    <clipPath id="clip-path">
      <rect id="長方形_67" data-name="長方形 67" width="80" height="45" transform="translate(0 0)" fill="none"/>
    </clipPath>
  </defs>
  <g id="グループ_302" data-name="グループ 302" transform="translate(-428 -780)">
    <g id="長方形_66" data-name="長方形 66" transform="translate(428 780)" fill="#fff" stroke="#707070" stroke-width="1">
      <rect width="130" height="100" stroke="none"/>
      <rect x="0.5" y="0.5" width="129" height="99" fill="none"/>
    </g>
    <g id="icon" transform="translate(473.348 788)">
      <g id="グループ_145" data-name="グループ 145" transform="translate(-20.348 10)" clip-path="url(#clip-path)">
        <path id="パス_111" data-name="パス 111" d="M65.029,15.88a15.138,15.138,0,0,1,10.586,4.264,14.278,14.278,0,0,1,0,20.591,15.272,15.272,0,0,1-21.172,0,14.278,14.278,0,0,1,0-20.591,15.06,15.06,0,0,1,2.5-1.957l1.268,2.953a11.738,11.738,0,0,0-1.484,1.221,11.2,11.2,0,0,0,0,16.156,11.982,11.982,0,0,0,16.612,0,11.2,11.2,0,0,0,0-16.156,11.88,11.88,0,0,0-8.306-3.345,12.113,12.113,0,0,0-2.4.239l-1.262-2.937a15.38,15.38,0,0,1,3.661-.438m-7.4,1.9L55.3,12.336l-16.5,19.142a1.626,1.626,0,0,1-1.343.558l-4.617-.007v-.006l-7.43,0L14.972,32a1.585,1.585,0,0,1-1.607-1.562,1.52,1.52,0,0,1,.24-.821L24.787,12.078l0,0L26.36,9.608,23.772,3.889l-3.487-.282A1.582,1.582,0,0,1,18.81,1.917,1.6,1.6,0,0,1,20.549.483l9.042.73A1.582,1.582,0,0,1,31.066,2.9a1.6,1.6,0,0,1-1.738,1.433l-1.9-.152,1.8,3.968L53.362,7.83,51.028,2.4a1.535,1.535,0,0,1-.12-.7c0-.045-.006-.089-.006-.133A1.59,1.59,0,0,1,52.514,0h9.6a5.231,5.231,0,0,1,4.934,2.7,4.262,4.262,0,0,1,.463,2,4.153,4.153,0,0,1-.552,2,5.048,5.048,0,0,1-4.933,2.3A1.565,1.565,0,1,1,62.2,5.881c1.055.058,1.69-.263,1.947-.708a1.083,1.083,0,0,0,.148-.522,1.222,1.222,0,0,0-.134-.582,2.143,2.143,0,0,0-2.05-.934H54.833L59.545,14.1l5.386,12.54,1.585,3.689a1.55,1.55,0,0,1-.869,2.046,1.627,1.627,0,0,1-2.1-.845L59.052,21.079ZM29.746,32.8a14.381,14.381,0,0,1-4.188,7.932,15.272,15.272,0,0,1-21.173,0,14.278,14.278,0,0,1,0-20.591A15.139,15.139,0,0,1,14.972,15.88a15.3,15.3,0,0,1,5.739,1.109L18.982,19.7a12.035,12.035,0,0,0-4.011-.683,11.882,11.882,0,0,0-8.307,3.345,11.2,11.2,0,0,0,0,16.156,11.982,11.982,0,0,0,16.613,0A11.317,11.317,0,0,0,26.467,32.8ZM27.927,13.08l-2.28,3.577-1.468,2.3L18.417,28l-.563.885,5.213.008a.461.461,0,0,0,.083.008l7.938,0,3.976.006ZM26.475,28.118a11.313,11.313,0,0,0-3.2-5.756c-.066-.064-.133-.128-.2-.19l1.728-2.711c.259.22.509.447.753.683a14.393,14.393,0,0,1,4.2,7.975Zm11.493-.554,14.307-16.6-21.657.289Z" transform="translate(0 0)" fill="#332c2b"/>
      </g>
      <text id="電動アシスト自転車" transform="translate(19.652 79)" fill="#1c1918" font-size="12" font-family="NotoSansJP-Bold, Noto Sans JP" font-weight="700"><tspan x="-53.76" y="0">電動</tspan><tspan y="0">アシスト</tspan><tspan y="0">自転車</tspan></text>
    </g>
  </g>
</svg>
