<svg xmlns="http://www.w3.org/2000/svg" width="460" height="100" viewBox="0 0 460 100"><g fill="rgba(255,255,255,0.5)"><path d="M 410 99.5 L 50 99.5 C 43.31729507446289 99.5 36.83482360839844 98.19129180908203 30.73252868652344 95.61023712158203 C 24.83817672729492 93.11711883544922 19.54435348510742 89.54794311523438 14.99823570251465 85.00176239013672 C 10.45205879211426 80.45565032958984 6.882882118225098 75.16182708740234 4.389764785766602 69.26747131347656 C 1.808705925941467 63.16517639160156 0.5 56.68270492553711 0.5 50 C 0.5 43.31729507446289 1.808705925941467 36.83482360839844 4.389764785766602 30.73252868652344 C 6.882882118225098 24.83817672729492 10.45205879211426 19.54435348510742 14.99823570251465 14.99823570251465 C 19.54435348510742 10.45205879211426 24.83817672729492 6.882882118225098 30.73252868652344 4.389764785766602 C 36.83482360839844 1.808705925941467 43.31729507446289 0.5 50 0.5 L 410 0.5 C 416.6827087402344 0.5 423.1651916503906 1.808705925941467 429.2674560546875 4.389764785766602 C 435.1618347167969 6.882882118225098 440.4556579589844 10.45205879211426 445.0017700195312 14.99823570251465 C 449.5479431152344 19.54435348510742 453.1171264648438 24.83817672729492 455.6102294921875 30.73252868652344 C 458.1912841796875 36.83482360839844 459.5 43.31729507446289 459.5 50 C 459.5 56.68270492553711 458.1912841796875 63.16517639160156 455.6102294921875 69.26747131347656 C 453.1171264648438 75.16182708740234 449.5479431152344 80.45565032958984 445.0017700195312 85.00176239013672 C 440.4556579589844 89.54794311523438 435.1618347167969 93.11711883544922 429.2674560546875 95.61023712158203 C 423.1651916503906 98.19129180908203 416.6827087402344 99.5 410 99.5 Z" stroke="none"/><path d="M 50 1 C 43.38458251953125 1 36.96759033203125 2.29541015625 30.92730712890625 4.850234985351562 C 25.092529296875 7.31817626953125 19.8521728515625 10.85135650634766 15.35177612304688 15.35176849365234 C 10.85134887695312 19.8521728515625 7.31817626953125 25.092529296875 4.850250244140625 30.92729187011719 C 2.29541015625 36.96758651733398 1 43.38458633422852 1 50 C 1 56.61541366577148 2.29541015625 63.03241348266602 4.850250244140625 69.07270812988281 C 7.31817626953125 74.907470703125 10.85134887695312 80.1478271484375 15.35177612304688 84.64823913574219 C 19.8521728515625 89.14865112304688 25.092529296875 92.68182373046875 30.92730712890625 95.14976501464844 C 36.96759033203125 97.70458984375 43.38458251953125 99 50 99 L 410 99 C 416.6154174804688 99 423.0324096679688 97.70458984375 429.0726928710938 95.14976501464844 C 434.907470703125 92.68182373046875 440.1478271484375 89.14865112304688 444.6482238769531 84.64823913574219 C 449.1486511230469 80.1478271484375 452.6818237304688 74.907470703125 455.1497497558594 69.07270812988281 C 457.70458984375 63.03241348266602 459 56.61541366577148 459 50 C 459 43.38458633422852 457.70458984375 36.96758651733398 455.1497497558594 30.92729187011719 C 452.6818237304688 25.092529296875 449.1486511230469 19.8521728515625 444.6482238769531 15.35176849365234 C 440.1478271484375 10.85135650634766 434.907470703125 7.31817626953125 429.0726928710938 4.850234985351562 C 423.0324096679688 2.29541015625 416.6154174804688 1 410 1 L 50 1 M 50 0 L 410 0 C 437.6142272949219 0 460 22.38576507568359 460 50 C 460 77.61423492431641 437.6142272949219 100 410 100 L 50 100 C 22.38577270507812 100 0 77.61423492431641 0 50 C 0 22.38576507568359 22.38577270507812 0 50 0 Z" stroke="none" fill="#1c1918"/></g><g transform="translate(-765 -2212)"><text transform="translate(942 2276)" fill="#1c1918" font-size="40" font-family="YanoneKaffeesatz-Bold, Yanone Kaffeesatz" font-weight="700" letter-spacing="0.05em"><tspan x="-89.62" y="0">ONLINE STORE</tspan></text><g transform="translate(1058.717 2261.717)"><g transform="translate(-6.717 -6.717)"><path d="M7.816,0V1h3.911L6.363,6.363l.707.707,5.364-5.363v3.91h1V0Z" fill="#444"/><path d="M12.435,12.435H1V1H5.618V0H0V13.435H13.435V7.816h-1Z" fill="#444"/></g></g><path d="M7.886,0,6.811,1.074l5.94,5.938H0v1.45H12.681L6.808,14.334l1.074,1.074,6.947-6.946h.052V8.409l.707-.707Z" transform="translate(1169 2253)" fill="#1c1918"/></g><path d="M19.308,29.168a3.1,3.1,0,1,1-3.1-3.1A3.1,3.1,0,0,1,19.308,29.168Zm8.18-3.1a3.1,3.1,0,1,0,3.1,3.1A3.1,3.1,0,0,0,27.488,26.069Zm-15.324-1.45.057-.014h-.06Zm18.649-4.988a.786.786,0,0,0,.108-.141v0a.52.52,0,0,0,.025-.046.949.949,0,0,0,.081-.2L35.378,8.06A1.628,1.628,0,0,0,34.8,6.141a2.4,2.4,0,0,0-1.386-.44H9.721L8.456,1.036A1.426,1.426,0,0,0,7.1.028L1.328,0C.574,0,0,.424,0,1.111a1.4,1.4,0,0,0,1.337,1.38l5.086.125L12.236,24.6h18.63c.917,0,1.661-.526,1.661-1.174s-.744-1.174-1.661-1.174h-16.7l-.6-2.226H29.879A1.249,1.249,0,0,0,30.813,19.631Z" transform="translate(37 34)" fill="#0a0709"/></svg>