<svg xmlns="http://www.w3.org/2000/svg" xmlns:xlink="http://www.w3.org/1999/xlink" width="460" height="100" viewBox="0 0 460 100"><defs><clipPath id="a"><rect width="116.464" height="26" fill="none"/></clipPath><clipPath id="b"><rect width="13.435" height="13.435" transform="translate(0 0)" fill="none"/></clipPath></defs><g fill="#fff"><path d="M 410 99.5 L 50 99.5 C 43.31729507446289 99.5 36.83482360839844 98.19129180908203 30.73252868652344 95.61023712158203 C 24.83817672729492 93.11711883544922 19.54435348510742 89.54794311523438 14.99823570251465 85.00176239013672 C 10.45205879211426 80.45565032958984 6.882882118225098 75.16182708740234 4.389764785766602 69.26747131347656 C 1.808705925941467 63.16517639160156 0.5 56.68270492553711 0.5 50 C 0.5 43.31729507446289 1.808705925941467 36.83482360839844 4.389764785766602 30.73252868652344 C 6.882882118225098 24.83817672729492 10.45205879211426 19.54435348510742 14.99823570251465 14.99823570251465 C 19.54435348510742 10.45205879211426 24.83817672729492 6.882882118225098 30.73252868652344 4.389764785766602 C 36.83482360839844 1.808705925941467 43.31729507446289 0.5 50 0.5 L 410 0.5 C 416.6827087402344 0.5 423.1651916503906 1.808705925941467 429.2674560546875 4.389764785766602 C 435.1618347167969 6.882882118225098 440.4556579589844 10.45205879211426 445.0017700195312 14.99823570251465 C 449.5479431152344 19.54435348510742 453.1171264648438 24.83817672729492 455.6102294921875 30.73252868652344 C 458.1912841796875 36.83482360839844 459.5 43.31729507446289 459.5 50 C 459.5 56.68270492553711 458.1912841796875 63.16517639160156 455.6102294921875 69.26747131347656 C 453.1171264648438 75.16182708740234 449.5479431152344 80.45565032958984 445.0017700195312 85.00176239013672 C 440.4556579589844 89.54794311523438 435.1618347167969 93.11711883544922 429.2674560546875 95.61023712158203 C 423.1651916503906 98.19129180908203 416.6827087402344 99.5 410 99.5 Z" stroke="none"/><path d="M 50 1 C 43.38458251953125 1 36.96759033203125 2.29541015625 30.92730712890625 4.850234985351562 C 25.092529296875 7.31817626953125 19.8521728515625 10.85135650634766 15.35177612304688 15.35176849365234 C 10.85134887695312 19.8521728515625 7.31817626953125 25.092529296875 4.850250244140625 30.92729187011719 C 2.29541015625 36.96758651733398 1 43.38458633422852 1 50 C 1 56.61541366577148 2.29541015625 63.03241348266602 4.850250244140625 69.07270812988281 C 7.31817626953125 74.907470703125 10.85134887695312 80.1478271484375 15.35177612304688 84.64823913574219 C 19.8521728515625 89.14865112304688 25.092529296875 92.68182373046875 30.92730712890625 95.14976501464844 C 36.96759033203125 97.70458984375 43.38458251953125 99 50 99 L 410 99 C 416.6154174804688 99 423.0324096679688 97.70458984375 429.0726928710938 95.14976501464844 C 434.907470703125 92.68182373046875 440.1478271484375 89.14865112304688 444.6482238769531 84.64823913574219 C 449.1486511230469 80.1478271484375 452.6818237304688 74.907470703125 455.1497497558594 69.07270812988281 C 457.70458984375 63.03241348266602 459 56.61541366577148 459 50 C 459 43.38458633422852 457.70458984375 36.96758651733398 455.1497497558594 30.92729187011719 C 452.6818237304688 25.092529296875 449.1486511230469 19.8521728515625 444.6482238769531 15.35176849365234 C 440.1478271484375 10.85135650634766 434.907470703125 7.31817626953125 429.0726928710938 4.850234985351562 C 423.0324096679688 2.29541015625 416.6154174804688 1 410 1 L 50 1 M 50 0 L 410 0 C 437.6142272949219 0 460 22.38576507568359 460 50 C 460 77.61423492431641 437.6142272949219 100 410 100 L 50 100 C 22.38577270507812 100 0 77.61423492431641 0 50 C 0 22.38576507568359 22.38577270507812 0 50 0 Z" stroke="none" fill="#fff"/></g><g transform="translate(-810 -2212)"><g transform="translate(847 2249)"><g clip-path="url(#a)"><path d="M36.367,4.06A4.652,4.652,0,0,0,33.083.776C30.187,0,18.572,0,18.572,0S6.957,0,4.06.776A4.654,4.654,0,0,0,.776,4.06C0,6.957,0,13,0,13s0,6.044.776,8.94A4.654,4.654,0,0,0,4.06,25.224C6.957,26,18.572,26,18.572,26s11.615,0,14.511-.776a4.652,4.652,0,0,0,3.284-3.284c.776-2.9.776-8.94.776-8.94s0-6.043-.776-8.94" fill="#1c1918"/><path d="M14.857,18.571,24.507,13l-9.65-5.572Z" fill="#fff"/><path d="M53.913,23.653a4.042,4.042,0,0,1-1.567-2.311,15.122,15.122,0,0,1-.465-4.17V14.808a13.712,13.712,0,0,1,.531-4.223,4.238,4.238,0,0,1,1.66-2.325,5.385,5.385,0,0,1,2.962-.73,5.047,5.047,0,0,1,2.9.744A4.267,4.267,0,0,1,61.523,10.6a14.264,14.264,0,0,1,.505,4.21v2.364a14.47,14.47,0,0,1-.492,4.183,4.107,4.107,0,0,1-1.594,2.311,5.348,5.348,0,0,1-2.988.731,5.38,5.38,0,0,1-3.041-.744M58.03,21.1a7.956,7.956,0,0,0,.305-2.6V13.427a7.869,7.869,0,0,0-.305-2.564,1.094,1.094,0,0,0-1.076-.81,1.078,1.078,0,0,0-1.049.81,7.842,7.842,0,0,0-.305,2.564V18.5a8.27,8.27,0,0,0,.292,2.6,1.068,1.068,0,0,0,1.062.8,1.091,1.091,0,0,0,1.076-.8" fill="#1c1918"/><path d="M110.328,17.211v.823a21.737,21.737,0,0,0,.093,2.351,2.231,2.231,0,0,0,.385,1.142,1.1,1.1,0,0,0,.9.359,1.136,1.136,0,0,0,1.129-.638,5.543,5.543,0,0,0,.332-2.125l3.161.186a4.913,4.913,0,0,1,.027.585,4.321,4.321,0,0,1-1.235,3.373,5.031,5.031,0,0,1-3.493,1.116,4.16,4.16,0,0,1-3.8-1.7,9.957,9.957,0,0,1-1.089-5.259V14.581a9.845,9.845,0,0,1,1.129-5.352,4.306,4.306,0,0,1,3.865-1.687,5.109,5.109,0,0,1,2.895.691,3.7,3.7,0,0,1,1.421,2.151,15.537,15.537,0,0,1,.412,4.038v2.789Zm.465-6.853a2.242,2.242,0,0,0-.372,1.129,22.075,22.075,0,0,0-.093,2.377v1.169h2.683V13.864a19.937,19.937,0,0,0-.106-2.377,2.275,2.275,0,0,0-.385-1.142,1.064,1.064,0,0,0-.864-.332,1.045,1.045,0,0,0-.863.345" fill="#1c1918"/><path d="M44.987,16.906,40.817,1.845h3.639l1.461,6.827q.558,2.523.823,4.3h.106q.186-1.275.824-4.277l1.514-6.853h3.639L48.6,16.906v7.225H44.987Z" fill="#1c1918"/><path d="M73.863,7.849V24.131H70.994l-.319-1.992H70.6A3.749,3.749,0,0,1,67.09,24.4,2.754,2.754,0,0,1,64.7,23.334a5.7,5.7,0,0,1-.77-3.32V7.849h3.665V19.8a3.656,3.656,0,0,0,.239,1.554.827.827,0,0,0,.8.464,1.627,1.627,0,0,0,.917-.292,1.8,1.8,0,0,0,.65-.743V7.849Z" fill="#1c1918"/><path d="M92.664,7.849V24.131H89.795l-.319-1.992H89.4A3.748,3.748,0,0,1,85.891,24.4,2.755,2.755,0,0,1,83.5,23.334a5.7,5.7,0,0,1-.77-3.32V7.849H86.4V19.8a3.659,3.659,0,0,0,.238,1.554.827.827,0,0,0,.8.464,1.627,1.627,0,0,0,.917-.292,1.8,1.8,0,0,0,.65-.743V7.849Z" fill="#1c1918"/><path d="M83.823,4.794H80.184V24.131H76.6V4.794H72.959V1.846H83.823Z" fill="#1c1918"/><path d="M104.8,10.451A4.192,4.192,0,0,0,103.72,8.22a2.891,2.891,0,0,0-2.045-.69,3.388,3.388,0,0,0-1.886.571,3.876,3.876,0,0,0-1.354,1.5h-.027V1.022H94.875V24.131H97.9l.372-1.541h.08a3.11,3.11,0,0,0,1.275,1.3,3.775,3.775,0,0,0,1.886.478,2.888,2.888,0,0,0,2.736-1.713,12.338,12.338,0,0,0,.876-5.352V14.728a21.411,21.411,0,0,0-.332-4.277m-3.36,6.642a20.645,20.645,0,0,1-.146,2.789,3.018,3.018,0,0,1-.492,1.434,1.133,1.133,0,0,1-.929.425,1.7,1.7,0,0,1-.837-.212,1.6,1.6,0,0,1-.624-.638V11.648a2.314,2.314,0,0,1,.637-1.089,1.412,1.412,0,0,1,.983-.425.99.99,0,0,1,.863.438,3.352,3.352,0,0,1,.425,1.474,27.418,27.418,0,0,1,.12,2.949Z" fill="#1c1918"/></g></g><path d="M7.886,0,6.811,1.074l5.94,5.938H0v1.45H12.681L6.808,14.334l1.074,1.074,6.947-6.946h.052V8.409l.707-.707Z" transform="translate(1214 2254)" fill="#de5329"/><g transform="translate(982.717 2261.717)"><g transform="translate(-6.717 -6.717)"><g transform="translate(0 0)"><g clip-path="url(#b)"><path d="M7.817,0V1h3.911L6.364,6.363l.707.707,5.364-5.364V5.617h1V0Z" fill="#fff"/><path d="M0,0V13.434H13.434V7.816h-1v4.618H1V1H5.618V0Z" fill="#fff"/></g></g></g></g><text transform="translate(1206 2269)" fill="#1c1918" font-size="16" font-family="NotoSansJP-Bold, Noto Sans JP" font-weight="700"><tspan x="-112" y="0">動画</tspan><tspan y="0">でチェック</tspan></text><g transform="translate(982.717 2261.717)"><g transform="translate(-6.717 -6.717)"><path d="M7.816,0V1h3.911L6.363,6.363l.707.707,5.364-5.363v3.91h1V0Z" fill="#444"/><path d="M12.435,12.435H1V1H5.618V0H0V13.435H13.435V7.816h-1Z" fill="#444"/></g></g></g></svg>