<svg xmlns="http://www.w3.org/2000/svg" xmlns:xlink="http://www.w3.org/1999/xlink" width="315" height="60" viewBox="0 0 315 60"><defs><clipPath id="a"><rect width="116.464" height="26" fill="#1c1918"/></clipPath><clipPath id="b"><rect width="13" height="13" fill="none"/></clipPath></defs><g transform="translate(-30 -1105)"><g transform="translate(30 1105)" fill="#fff"><path d="M 285 59.5 L 30 59.5 C 26.01730728149414 59.5 22.15399932861328 58.72007751464844 18.51742362976074 57.18196105957031 C 15.00465393066406 55.6961555480957 11.84973049163818 53.56903839111328 9.140346527099609 50.85965347290039 C 6.430961608886719 48.1502685546875 4.30384635925293 44.99534606933594 2.818038463592529 41.48257827758789 C 1.27992308139801 37.84600067138672 0.5 33.98269271850586 0.5 30 C 0.5 26.01730728149414 1.27992308139801 22.15399932861328 2.818038463592529 18.51742362976074 C 4.30384635925293 15.00465393066406 6.430961608886719 11.84973049163818 9.140346527099609 9.140346527099609 C 11.84973049163818 6.430961608886719 15.00465393066406 4.30384635925293 18.51742362976074 2.818038463592529 C 22.15399932861328 1.27992308139801 26.01730728149414 0.5 30 0.5 L 285 0.5 C 288.9826965332031 0.5 292.8460083007812 1.27992308139801 296.4825744628906 2.818038463592529 C 299.995361328125 4.30384635925293 303.1502685546875 6.430961608886719 305.8596496582031 9.140346527099609 C 308.5690307617188 11.84973049163818 310.6961669921875 15.00465393066406 312.1819763183594 18.51742362976074 C 313.7200622558594 22.15399932861328 314.5 26.01730728149414 314.5 30 C 314.5 33.98269271850586 313.7200622558594 37.84600067138672 312.1819763183594 41.48257827758789 C 310.6961669921875 44.99534606933594 308.5690307617188 48.1502685546875 305.8596496582031 50.85965347290039 C 303.1502685546875 53.56903839111328 299.995361328125 55.6961555480957 296.4825744628906 57.18196105957031 C 292.8460083007812 58.72007751464844 288.9826965332031 59.5 285 59.5 Z" stroke="none"/><path d="M 30 1 C 26.0845947265625 1 22.28683471679688 1.766624450683594 18.71221923828125 3.278541564941406 C 15.25900268554688 4.739124298095703 12.15753173828125 6.830291748046875 9.493927001953125 9.493915557861328 C 6.830291748046875 12.15754318237305 4.7391357421875 15.25899887084961 3.278533935546875 18.71220779418945 C 1.766632080078125 22.28683471679688 1 26.0845832824707 1 30 C 1 33.9154167175293 1.766632080078125 37.71316528320312 3.278533935546875 41.28779220581055 C 4.7391357421875 44.74100112915039 6.830291748046875 47.84246063232422 9.493927001953125 50.50608444213867 C 12.15753173828125 53.16970825195312 15.25900268554688 55.2608757019043 18.71221923828125 56.72145843505859 C 22.28683471679688 58.23337554931641 26.0845947265625 59 30 59 L 285 59 C 288.9154052734375 59 292.7131652832031 58.23337554931641 296.2877807617188 56.72145843505859 C 299.7409973144531 55.2608757019043 302.8424682617188 53.16970825195312 305.5060729980469 50.50608444213867 C 308.1697082519531 47.84246063232422 310.2608642578125 44.74100112915039 311.7214660644531 41.28779220581055 C 313.2333679199219 37.71316528320312 314 33.9154167175293 314 30 C 314 26.0845832824707 313.2333679199219 22.28683471679688 311.7214660644531 18.71220779418945 C 310.2608642578125 15.25899887084961 308.1697082519531 12.15754318237305 305.5060729980469 9.493915557861328 C 302.8424682617188 6.830291748046875 299.7409973144531 4.739124298095703 296.2877807617188 3.278541564941406 C 292.7131652832031 1.766624450683594 288.9154052734375 1 285 1 L 30 1 M 30 0 L 285 0 C 301.5685424804688 0 315 13.43145751953125 315 30 C 315 46.56854248046875 301.5685424804688 60 285 60 L 30 60 C 13.43145751953125 60 0 46.56854248046875 0 30 C 0 13.43145751953125 13.43145751953125 0 30 0 Z" stroke="none" fill="#fff"/></g><g transform="translate(22 1122)"><g transform="translate(29)"><g clip-path="url(#a)"><path d="M36.367,4.06A4.652,4.652,0,0,0,33.083.776C30.187,0,18.572,0,18.572,0S6.957,0,4.06.776A4.654,4.654,0,0,0,.776,4.06C0,6.957,0,13,0,13s0,6.044.776,8.94A4.654,4.654,0,0,0,4.06,25.224C6.957,26,18.572,26,18.572,26s11.615,0,14.511-.776a4.652,4.652,0,0,0,3.284-3.284c.776-2.9.776-8.94.776-8.94s0-6.043-.776-8.94" fill="#1c1918"/><path d="M14.857,18.571,24.507,13l-9.65-5.572Z" fill="#fff"/><path d="M53.913,23.653a4.042,4.042,0,0,1-1.567-2.311,15.122,15.122,0,0,1-.465-4.17V14.808a13.712,13.712,0,0,1,.531-4.223,4.238,4.238,0,0,1,1.66-2.325,5.385,5.385,0,0,1,2.962-.73,5.047,5.047,0,0,1,2.9.744A4.267,4.267,0,0,1,61.523,10.6a14.264,14.264,0,0,1,.505,4.21v2.364a14.47,14.47,0,0,1-.492,4.183,4.107,4.107,0,0,1-1.594,2.311,5.348,5.348,0,0,1-2.988.731,5.38,5.38,0,0,1-3.041-.744M58.03,21.1a7.956,7.956,0,0,0,.305-2.6V13.427a7.869,7.869,0,0,0-.305-2.564,1.094,1.094,0,0,0-1.076-.81,1.078,1.078,0,0,0-1.049.81,7.842,7.842,0,0,0-.305,2.564V18.5a8.27,8.27,0,0,0,.292,2.6,1.068,1.068,0,0,0,1.062.8,1.091,1.091,0,0,0,1.076-.8" fill="#1c1918"/><path d="M110.328,17.211v.823a21.737,21.737,0,0,0,.093,2.351,2.231,2.231,0,0,0,.385,1.142,1.1,1.1,0,0,0,.9.359,1.136,1.136,0,0,0,1.129-.638,5.543,5.543,0,0,0,.332-2.125l3.161.186a4.913,4.913,0,0,1,.027.585,4.321,4.321,0,0,1-1.235,3.373,5.031,5.031,0,0,1-3.493,1.116,4.16,4.16,0,0,1-3.8-1.7,9.957,9.957,0,0,1-1.089-5.259V14.581a9.845,9.845,0,0,1,1.129-5.352,4.306,4.306,0,0,1,3.865-1.687,5.109,5.109,0,0,1,2.895.691,3.7,3.7,0,0,1,1.421,2.151,15.537,15.537,0,0,1,.412,4.038v2.789Zm.465-6.853a2.242,2.242,0,0,0-.372,1.129,22.075,22.075,0,0,0-.093,2.377v1.169h2.683V13.864a19.937,19.937,0,0,0-.106-2.377,2.275,2.275,0,0,0-.385-1.142,1.064,1.064,0,0,0-.864-.332,1.045,1.045,0,0,0-.863.345" fill="#1c1918"/><path d="M44.987,16.906,40.817,1.845h3.639l1.461,6.827q.558,2.523.823,4.3h.106q.186-1.275.824-4.277l1.514-6.853h3.639L48.6,16.906v7.225H44.987Z" fill="#1c1918"/><path d="M73.863,7.849V24.131H70.994l-.319-1.992H70.6A3.749,3.749,0,0,1,67.09,24.4,2.754,2.754,0,0,1,64.7,23.334a5.7,5.7,0,0,1-.77-3.32V7.849h3.665V19.8a3.656,3.656,0,0,0,.239,1.554.827.827,0,0,0,.8.464,1.627,1.627,0,0,0,.917-.292,1.8,1.8,0,0,0,.65-.743V7.849Z" fill="#1c1918"/><path d="M92.664,7.849V24.131H89.795l-.319-1.992H89.4A3.748,3.748,0,0,1,85.891,24.4,2.755,2.755,0,0,1,83.5,23.334a5.7,5.7,0,0,1-.77-3.32V7.849H86.4V19.8a3.659,3.659,0,0,0,.238,1.554.827.827,0,0,0,.8.464,1.627,1.627,0,0,0,.917-.292,1.8,1.8,0,0,0,.65-.743V7.849Z" fill="#1c1918"/><path d="M83.823,4.794H80.184V24.131H76.6V4.794H72.959V1.846H83.823Z" fill="#1c1918"/><path d="M104.8,10.451A4.192,4.192,0,0,0,103.72,8.22a2.891,2.891,0,0,0-2.045-.69,3.388,3.388,0,0,0-1.886.571,3.876,3.876,0,0,0-1.354,1.5h-.027V1.022H94.875V24.131H97.9l.372-1.541h.08a3.11,3.11,0,0,0,1.275,1.3,3.775,3.775,0,0,0,1.886.478,2.888,2.888,0,0,0,2.736-1.713,12.338,12.338,0,0,0,.876-5.352V14.728a21.411,21.411,0,0,0-.332-4.277m-3.36,6.642a20.645,20.645,0,0,1-.146,2.789,3.018,3.018,0,0,1-.492,1.434,1.133,1.133,0,0,1-.929.425,1.7,1.7,0,0,1-.837-.212,1.6,1.6,0,0,1-.624-.638V11.648a2.314,2.314,0,0,1,.637-1.089,1.412,1.412,0,0,1,.983-.425.99.99,0,0,1,.863.438,3.352,3.352,0,0,1,.425,1.474,27.418,27.418,0,0,1,.12,2.949Z" fill="#1c1918"/></g></g><g transform="translate(159.5 13.5)"><g transform="translate(-6.5 -6.5)"><g clip-path="url(#b)"><path d="M7.769,0V.968h3.784l-5.19,5.19.684.684,5.19-5.19V5.436h.968V0Z" transform="translate(-0.206 0)" fill="#fff"/><path d="M0,0V13H13V7.563h-.968v4.469H.968V.968H5.436V0Z" transform="translate(0 0)" fill="#fff"/></g></g></g><text transform="translate(277 19)" fill="#1c1918" font-size="13" font-family="NotoSansJP-Bold, Noto Sans JP" font-weight="700"><tspan x="-91" y="0">動画</tspan><tspan y="0">でチェック</tspan></text><path d="M5.059,0l-.69.7L8.18,4.551H0v.941H8.135L4.367,9.3l.689.7L9.513,5.492h.033V5.458L10,5Z" transform="translate(287 9)" fill="#de5329"/><g transform="translate(159.5 13.5)"><g transform="translate(-6.5 -6.5)"><path d="M7.769,0V.968h3.785L6.363,6.157l.684.684,5.191-5.19V5.435h.968V0Z" transform="translate(-0.206)" fill="#444"/><path d="M12.032,12.032H.968V.968H5.436V0H0V13H13V7.564h-.968Z" fill="#444"/></g></g></g></g></svg>