<svg xmlns="http://www.w3.org/2000/svg" width="35.489" height="32.267" viewBox="0 0 35.489 32.267"><path d="M19.308,29.168a3.1,3.1,0,1,1-3.1-3.1A3.1,3.1,0,0,1,19.308,29.168Zm8.18-3.1a3.1,3.1,0,1,0,3.1,3.1A3.1,3.1,0,0,0,27.488,26.069Zm-15.324-1.45.057-.014h-.06Zm18.649-4.988a.786.786,0,0,0,.108-.141v0a.52.52,0,0,0,.025-.046.949.949,0,0,0,.081-.2L35.378,8.06A1.628,1.628,0,0,0,34.8,6.141a2.4,2.4,0,0,0-1.386-.44H9.721L8.456,1.036A1.426,1.426,0,0,0,7.1.028L1.328,0C.574,0,0,.424,0,1.111a1.4,1.4,0,0,0,1.337,1.38l5.086.125L12.236,24.6h18.63c.917,0,1.661-.526,1.661-1.174s-.744-1.174-1.661-1.174h-16.7l-.6-2.226H29.879A1.249,1.249,0,0,0,30.813,19.631Z" fill="#0a0709"/></svg>