<svg xmlns="http://www.w3.org/2000/svg" width="41" height="41.001" viewBox="0 0 41 41.001"><path d="M-2268.246-6158.121a14.654,14.654,0,0,1-4.855-.93,9.785,9.785,0,0,1-3.542-2.307,9.783,9.783,0,0,1-2.307-3.542,14.651,14.651,0,0,1-.93-4.854c-.1-2.133-.12-2.814-.12-8.246s.023-6.113.12-8.246a14.643,14.643,0,0,1,.93-4.854,9.788,9.788,0,0,1,2.307-3.543,9.8,9.8,0,0,1,3.542-2.307,14.658,14.658,0,0,1,4.855-.929c2.134-.1,2.814-.122,8.246-.122s6.113.023,8.247.122a14.658,14.658,0,0,1,4.855.929,9.813,9.813,0,0,1,3.542,2.307,9.807,9.807,0,0,1,2.307,3.543,14.687,14.687,0,0,1,.93,4.854c.1,2.133.12,2.814.12,8.246s-.023,6.113-.12,8.246a14.7,14.7,0,0,1-.93,4.854,9.8,9.8,0,0,1-2.307,3.542,9.8,9.8,0,0,1-3.542,2.307,14.654,14.654,0,0,1-4.855.93c-2.134.1-2.815.122-8.247.122S-2266.112-6158.022-2268.246-6158.121Zm.165-36.159a11.058,11.058,0,0,0-3.714.689,6.207,6.207,0,0,0-2.3,1.495,6.2,6.2,0,0,0-1.5,2.3,11.017,11.017,0,0,0-.687,3.713c-.1,2.109-.118,2.742-.118,8.082s.022,5.973.118,8.081a11.02,11.02,0,0,0,.688,3.714,6.191,6.191,0,0,0,1.5,2.3,6.174,6.174,0,0,0,2.3,1.5,11.087,11.087,0,0,0,3.714.689c2.108.1,2.741.117,8.081.117s5.973-.02,8.083-.117a11.1,11.1,0,0,0,3.714-.689,6.174,6.174,0,0,0,2.3-1.5,6.191,6.191,0,0,0,1.5-2.3,11.064,11.064,0,0,0,.688-3.714c.1-2.108.117-2.741.117-8.081s-.02-5.973-.117-8.082a11.062,11.062,0,0,0-.687-3.713,6.2,6.2,0,0,0-1.5-2.3,6.207,6.207,0,0,0-2.3-1.495,11.067,11.067,0,0,0-3.714-.689c-2.109-.1-2.742-.116-8.083-.116S-2265.972-6194.376-2268.082-6194.28Zm-2.188,16.28A10.27,10.27,0,0,1-2260-6188.271,10.27,10.27,0,0,1-2249.73-6178,10.27,10.27,0,0,1-2260-6167.73,10.27,10.27,0,0,1-2270.27-6178Zm3.6,0a6.667,6.667,0,0,0,6.667,6.667,6.667,6.667,0,0,0,6.667-6.667,6.667,6.667,0,0,0-6.667-6.667A6.667,6.667,0,0,0-2266.667-6178Zm14.944-10.677a2.4,2.4,0,0,1,2.4-2.4,2.4,2.4,0,0,1,2.4,2.4,2.4,2.4,0,0,1-2.4,2.4A2.4,2.4,0,0,1-2251.724-6188.677Z" transform="translate(2280.5 6198.5)" stroke="rgba(0,0,0,0)" stroke-miterlimit="10" stroke-width="1"/></svg>