<svg xmlns="http://www.w3.org/2000/svg" xmlns:xlink="http://www.w3.org/1999/xlink" width="40.148" height="36" viewBox="0 0 40.148 36"><defs><filter id="a" x="0" y="0" width="40.148" height="36" filterUnits="userSpaceOnUse"><feOffset input="SourceAlpha"/><feGaussianBlur stdDeviation="3" result="b"/><feFlood flood-opacity="0.302"/><feComposite operator="in" in2="b"/><feComposite in="SourceGraphic"/></filter></defs><g transform="matrix(1, 0, 0, 1, 0, 0)" filter="url(#a)"><path d="M47.6,18A12.841,12.841,0,0,0,60.526,5.071c0-.2,0-.392-.013-.588a9.244,9.244,0,0,0,2.267-2.352,9.09,9.09,0,0,1-2.609.715,4.566,4.566,0,0,0,2-2.514,9.075,9.075,0,0,1-2.886,1.1A4.549,4.549,0,0,0,51.539,5.58,12.9,12.9,0,0,1,42.173.833,4.547,4.547,0,0,0,43.579,6.9a4.511,4.511,0,0,1-2.058-.569c0,.019,0,.038,0,.058a4.548,4.548,0,0,0,3.646,4.456,4.548,4.548,0,0,1-2.052.078,4.55,4.55,0,0,0,4.246,3.156,9.123,9.123,0,0,1-5.644,1.945,9.256,9.256,0,0,1-1.085-.064A12.866,12.866,0,0,0,47.6,18" transform="translate(-31.63 9)" fill="#fff"/></g></svg>