<svg xmlns="http://www.w3.org/2000/svg" xmlns:xlink="http://www.w3.org/1999/xlink" width="43.714" height="36" viewBox="0 0 43.714 36"><defs><filter id="a" x="0" y="0" width="43.714" height="36" filterUnits="userSpaceOnUse"><feOffset input="SourceAlpha"/><feGaussianBlur stdDeviation="3" result="b"/><feFlood flood-opacity="0.302"/><feComposite operator="in" in2="b"/><feComposite in="SourceGraphic"/></filter></defs><g transform="matrix(1, 0, 0, 1, 0, 0)" filter="url(#a)"><path d="M106.682,2.81A3.221,3.221,0,0,0,104.409.536C102.4,0,94.363,0,94.363,0S86.322,0,84.316.536A3.224,3.224,0,0,0,82.042,2.81,33.521,33.521,0,0,0,81.506,9a33.511,33.511,0,0,0,.536,6.188,3.224,3.224,0,0,0,2.274,2.274C86.322,18,94.363,18,94.363,18s8.041,0,10.046-.538a3.221,3.221,0,0,0,2.273-2.274A33.439,33.439,0,0,0,107.22,9a33.449,33.449,0,0,0-.538-6.19M91.791,12.857V5.142L98.472,9Z" transform="translate(-72.51 9)" fill="#fff"/></g></svg>