<svg xmlns="http://www.w3.org/2000/svg" xmlns:xlink="http://www.w3.org/1999/xlink" width="37" height="37" viewBox="0 0 37 37"><defs><filter id="a" x="0" y="0" width="37" height="37" filterUnits="userSpaceOnUse"><feOffset input="SourceAlpha"/><feGaussianBlur stdDeviation="3" result="b"/><feFlood flood-opacity="0.302"/><feComposite operator="in" in2="b"/><feComposite in="SourceGraphic"/></filter></defs><g transform="matrix(1, 0, 0, 1, 0, 0)" filter="url(#a)"><path d="M-1251.711-406.054a6.639,6.639,0,0,1-2.185-.419,4.408,4.408,0,0,1-1.594-1.038,4.405,4.405,0,0,1-1.038-1.594,6.609,6.609,0,0,1-.419-2.185c-.043-.96-.054-1.266-.054-3.711s.011-2.75.054-3.71a6.617,6.617,0,0,1,.419-2.186,4.4,4.4,0,0,1,1.038-1.593,4.393,4.393,0,0,1,1.594-1.038,6.586,6.586,0,0,1,2.185-.419c.96-.043,1.266-.054,3.711-.054s2.75.011,3.71.054a6.592,6.592,0,0,1,2.186.419,4.389,4.389,0,0,1,1.593,1.038,4.4,4.4,0,0,1,1.038,1.593,6.588,6.588,0,0,1,.419,2.186c.043.96.054,1.266.054,3.71s-.011,2.751-.054,3.711a6.581,6.581,0,0,1-.419,2.185,4.406,4.406,0,0,1-1.038,1.594,4.4,4.4,0,0,1-1.593,1.038,6.646,6.646,0,0,1-2.186.419c-.96.043-1.266.054-3.71.054S-1250.75-406.011-1251.711-406.054Zm.074-16.272a4.981,4.981,0,0,0-1.671.31,2.809,2.809,0,0,0-1.036.673,2.8,2.8,0,0,0-.673,1.036,5,5,0,0,0-.31,1.67c-.043.949-.053,1.234-.053,3.637s.01,2.688.053,3.637a5.016,5.016,0,0,0,.31,1.671,2.81,2.81,0,0,0,.673,1.036,2.809,2.809,0,0,0,1.036.673,5.009,5.009,0,0,0,1.671.31c.949.043,1.233.052,3.637.052s2.688-.009,3.636-.052a5,5,0,0,0,1.671-.31,2.8,2.8,0,0,0,1.036-.673,2.81,2.81,0,0,0,.673-1.036,4.987,4.987,0,0,0,.31-1.671c.043-.949.053-1.233.053-3.637s-.01-2.688-.053-3.637a4.973,4.973,0,0,0-.31-1.67,2.8,2.8,0,0,0-.673-1.036,2.8,2.8,0,0,0-1.036-.673,4.968,4.968,0,0,0-1.671-.31c-.948-.043-1.233-.053-3.636-.053S-1250.688-422.369-1251.637-422.326Zm-.984,7.326a4.621,4.621,0,0,1,4.621-4.621,4.622,4.622,0,0,1,4.621,4.621,4.621,4.621,0,0,1-4.621,4.621A4.62,4.62,0,0,1-1252.621-415Zm1.621,0a3,3,0,0,0,3,3,3,3,0,0,0,3-3,3,3,0,0,0-3-3A3,3,0,0,0-1251-415Zm6.724-4.8a1.08,1.08,0,0,1,1.08-1.08,1.079,1.079,0,0,1,1.079,1.08,1.079,1.079,0,0,1-1.079,1.079A1.079,1.079,0,0,1-1244.276-419.8Z" transform="translate(1266.5 433.5)" fill="#fff" stroke="rgba(0,0,0,0)" stroke-miterlimit="10" stroke-width="1"/></g></svg>