<svg width="300" height="120" viewBox="0 0 300 120" fill="none" xmlns="http://www.w3.org/2000/svg">
<rect x="0.5" y="0.5" width="299" height="119" stroke="#707070"/>
<path d="M42.6774 53.7766C44.4676 53.7766 46.2151 54.0486 47.8747 54.5706L56.1646 35.4479H46.0815C44.6043 35.4479 43.4019 36.6446 43.4019 38.1149C43.4019 39.5852 44.6043 40.7819 46.0815 40.7819C47.0304 40.7819 47.7991 41.5471 47.7991 42.4915C47.7991 43.436 47.0304 44.2012 46.0815 44.2012C42.7095 44.2012 39.9666 41.4711 39.9666 38.1149C39.9666 34.7587 42.5286 32.2117 45.7448 32.0377C45.8044 32.0316 45.8654 32.0278 45.9265 32.0278H58.7762C59.3541 32.0278 59.8938 32.3173 60.2114 32.7983C60.529 33.2793 60.5824 33.8864 60.3534 34.4152L56.899 42.3836H85.1588L87.1979 37.9424L80.5509 37.3011C79.7668 37.1575 79.1615 36.485 79.1378 35.6606C79.1103 34.7116 79.8608 33.9198 80.8142 33.8925L96.0419 33.236C96.2626 33.2307 96.4862 33.2307 96.7153 33.2383C98.2291 33.2861 99.1093 33.5027 98.7818 35.2685C98.4543 37.0344 96.897 39.0328 95.1228 38.7068L90.8149 38.2912L88.1766 44.0363L95.5808 55.601C97.952 54.4073 100.588 53.7759 103.322 53.7759C107.911 53.7759 112.224 55.5546 115.468 58.7839C118.713 62.0132 120.5 66.3071 120.5 70.8744C120.5 75.4418 118.713 79.7349 115.468 82.9642C112.224 86.1935 107.91 87.9723 103.322 87.9723C98.7337 87.9723 94.4197 86.1935 91.1752 82.9642C88.3392 80.1414 86.6169 76.5048 86.2283 72.5841H74.0505C74.0375 72.5841 74.0237 72.5833 74.0108 72.5826C73.9955 72.5826 73.9802 72.5841 73.965 72.5841C73.726 72.5841 73.4832 72.5339 73.2519 72.4291C72.813 72.2292 72.5 71.8691 72.3488 71.4496L54.7759 47.2808L51.0291 55.9247C52.404 56.6883 53.6812 57.6457 54.8248 58.7839C58.0693 62.0132 59.8564 66.3071 59.8564 70.8737C59.8564 75.4403 58.0693 79.7341 54.8248 82.9634C51.5803 86.1927 47.2663 87.9715 42.6782 87.9715C38.0901 87.9715 33.7761 86.1927 30.5316 82.9634C27.2871 79.7341 25.5 75.4403 25.5 70.8737C25.5 66.3071 27.2871 62.0132 30.5316 58.7839C33.7761 55.5546 38.0901 53.7759 42.6782 53.7759L42.6774 53.7766ZM86.4749 47.742L76.6384 69.1648H86.2276C86.6161 65.2433 88.3384 61.6075 91.1745 58.7847C91.6554 58.306 92.1608 57.8592 92.6868 57.4451L86.4749 47.742ZM89.6858 69.1648H100.19L94.5487 60.3538C91.9295 62.5208 90.1293 65.6361 89.6858 69.1648ZM103.322 84.553C110.899 84.553 117.065 78.4166 117.065 70.8744C117.065 63.3323 110.899 57.1959 103.322 57.1959C101.22 57.1959 99.2269 57.6685 97.4436 58.5119L104.77 69.9558C105.107 70.4824 105.129 71.1495 104.827 71.6966C104.526 72.2437 103.949 72.5841 103.321 72.5841H89.685C90.5332 79.3223 96.3244 84.553 103.321 84.553H103.322ZM73.6611 67.4233L83.5885 45.8029H57.941L73.6611 67.4233ZM42.6774 84.553C50.255 84.553 56.4203 78.4166 56.4203 70.8744C56.4203 65.8656 53.7011 61.4776 49.655 59.0947L44.2546 71.5522C43.9745 72.1988 43.3416 72.5848 42.6767 72.5848C42.45 72.5848 42.2186 72.54 41.9973 72.4443C41.1262 72.0704 40.7247 71.0644 41.1003 70.1974L46.5021 57.7361C45.2875 57.3851 44.0042 57.1966 42.6774 57.1966C35.0999 57.1966 28.9346 63.3331 28.9346 70.8752C28.9346 78.4173 35.0999 84.5538 42.6774 84.5538V84.553Z" fill="#303030" stroke="#303030"/>
<path d="M133.492 57.288V59.272H131.812V56.024H137.844V55.416H132.9V54.008H144.692V55.416H139.7V56.024H145.86V59.272H144.1V57.288H139.7V60.616H137.844V57.288H133.492ZM140.308 60.456V59.416H143.796V60.456H140.308ZM140.308 57.832H143.428V58.856H140.308V57.832ZM137.268 57.832V58.856H134.116V57.832H137.268ZM133.812 60.456V59.416H137.268V60.456H133.812ZM135.092 64.872H137.748V64.184H135.092V64.872ZM137.748 62.328H135.092V63.032H137.748V62.328ZM142.468 63.032V62.328H139.572V63.032H142.468ZM139.572 64.872H142.468V64.184H139.572V64.872ZM140.724 66.888H143.748C144.548 66.888 144.692 66.648 144.804 65.288C145.188 65.56 145.908 65.8 146.388 65.896C146.164 67.816 145.652 68.344 143.908 68.344H140.548C138.356 68.344 137.748 67.88 137.748 66.2V66.152H135.092V66.856H133.284V61.048H144.356V66.152H139.572V66.2C139.572 66.792 139.748 66.888 140.724 66.888ZM152.324 65.08V65.896C153.236 65.832 154.18 65.752 155.108 65.672C156.356 63.944 156.74 61.656 156.852 58.792H155.396V57.544H152.324V58.168H155.156V63.112H152.324V63.736H155.22V65.08H152.324ZM149.348 61.928H150.596V61.208H149.348V61.928ZM153.572 61.208H152.324V61.928H153.572V61.208ZM152.324 60.072H153.572V59.368H152.324V60.072ZM149.348 59.368V60.072H150.596V59.368H149.348ZM158.708 57.048H161.956C161.956 57.048 161.94 57.672 161.94 57.896C161.796 64.44 161.668 66.76 161.156 67.496C160.788 68.024 160.42 68.184 159.892 68.296C159.412 68.392 158.676 68.376 157.908 68.36C157.876 67.832 157.668 67.064 157.348 66.536C158.052 66.6 158.66 66.616 158.964 66.616C159.204 66.616 159.364 66.552 159.508 66.344C159.844 65.912 160.004 63.96 160.1 58.792H158.66C158.452 63.08 157.716 66.376 155.028 68.504C154.788 68.12 154.324 67.592 153.908 67.24C151.604 67.48 149.3 67.72 147.572 67.864L147.348 66.264C148.244 66.2 149.364 66.12 150.596 66.04V65.08H147.78V63.736H150.596V63.112H147.844V58.168H150.596V57.544H147.444V56.168H150.596V55.528C149.668 55.592 148.756 55.64 147.892 55.656C147.828 55.272 147.652 54.68 147.476 54.312C149.844 54.184 152.612 53.912 154.372 53.528L155.204 54.952C154.356 55.128 153.364 55.272 152.324 55.384V56.168H155.396V57.048H156.9C156.916 55.992 156.916 54.888 156.916 53.704H158.74C158.74 54.872 158.74 55.992 158.708 57.048ZM178.1 56.168C177.924 56.376 177.62 56.76 177.476 57C176.724 58.248 175.204 60.264 173.636 61.384L171.972 60.056C173.252 59.272 174.5 57.864 174.916 57.08H166.58C165.908 57.08 165.38 57.128 164.628 57.192V54.968C165.236 55.064 165.908 55.128 166.58 55.128H175.204C175.652 55.128 176.532 55.08 176.836 54.984L178.1 56.168ZM171.572 58.328C171.572 62.296 171.492 65.56 167.14 67.896L165.268 66.376C165.78 66.2 166.356 65.928 166.948 65.496C168.98 64.088 169.364 62.392 169.364 59.768C169.364 59.272 169.332 58.84 169.252 58.328H171.572ZM183.124 54.328C184.18 54.904 185.94 56.04 186.772 56.616L185.572 58.392C184.676 57.768 183.012 56.68 181.956 56.088L183.124 54.328ZM180.148 65.688C181.94 65.384 183.86 64.856 185.604 63.896C188.324 62.376 190.548 60.184 191.828 57.896L193.06 60.072C191.572 62.28 189.316 64.312 186.692 65.816C185.06 66.744 182.772 67.544 181.348 67.8L180.148 65.688ZM180.66 57.976C181.732 58.552 183.492 59.656 184.308 60.232L183.14 62.024C182.228 61.4 180.564 60.312 179.492 59.752L180.66 57.976ZM207.524 56.152C207.396 56.328 207.108 56.824 206.964 57.144C206.42 58.392 205.524 60.104 204.452 61.544C206.036 62.92 207.972 64.968 208.916 66.12L207.092 67.704C206.052 66.264 204.564 64.632 203.06 63.176C201.364 64.968 199.236 66.632 197.044 67.672L195.396 65.944C197.972 64.984 200.452 63.032 201.956 61.352C203.012 60.152 203.988 58.568 204.34 57.432H198.916C198.244 57.432 197.364 57.528 197.028 57.544V55.272C197.46 55.336 198.436 55.384 198.916 55.384H204.564C205.252 55.384 205.892 55.288 206.212 55.176L207.524 56.152ZM215.204 65.464V56.264C215.204 55.704 215.156 54.904 215.044 54.344H217.54C217.476 54.904 217.396 55.608 217.396 56.264V58.632C219.54 59.256 222.612 60.392 224.084 61.112L223.172 63.32C221.524 62.456 219.124 61.528 217.396 60.936V65.464C217.396 65.928 217.476 67.048 217.54 67.704H215.044C215.14 67.064 215.204 66.104 215.204 65.464ZM230.436 65.816H238.036V64.152H230.436V65.816ZM238.036 60.744H230.436V62.392H238.036V60.744ZM238.036 57.336H230.436V58.984H238.036V57.336ZM234.58 55.512H240.068V68.36H238.036V67.576H230.436V68.376H228.5V55.512H232.596C232.772 54.824 232.948 54.056 233.028 53.416L235.332 53.672C235.092 54.312 234.836 54.936 234.58 55.512ZM257.028 54.552V56.36H250.66V54.552H257.028ZM244.74 61V61.944H245.748V61H244.74ZM244.74 58.808V59.768H245.748V58.808H244.74ZM248.196 59.768V58.808H247.14V59.768H248.196ZM248.196 61.944V61H247.14V61.944H248.196ZM250.004 65.848H247.316V68.376H245.556V65.848H242.724V64.2H245.556V63.256H243.284V57.48H245.556V56.616H242.948V54.968H245.556V53.464H247.348V54.968H249.892V56.616H247.348V57.48H249.7V63.256H247.316V64.2H250.004V65.848ZM257.812 67.656L256.052 68.36C256.004 68.072 255.956 67.768 255.876 67.432C253.748 67.656 251.604 67.848 249.956 67.992L249.604 66.136L250.948 66.056C251.332 64.584 251.7 62.552 251.924 60.824H250.02V59.032H257.572V60.824H254.004C253.668 62.584 253.22 64.472 252.82 65.928L255.38 65.752C255.092 64.872 254.74 63.976 254.356 63.208L255.972 62.568C256.82 64.168 257.54 66.232 257.812 67.656ZM262.356 62.152H265.14V61.176H262.356V62.152ZM262.356 58.776V59.752H265.14V58.776H262.356ZM269.892 58.776H267.092V59.752H269.892V58.776ZM269.892 62.152V61.176H267.092V62.152H269.892ZM273.476 64.536V66.248H267.092V68.408H265.14V66.248H258.948V64.536H265.14V63.672H260.532V57.256H265.14V56.488H259.332V54.76H265.14V53.464H267.092V54.76H273.012V56.488H267.092V57.256H271.812V63.672H267.092V64.536H273.476Z" fill="#1C1918"/>
</svg>
