<svg width="155" height="100" viewBox="0 0 155 100" fill="none" xmlns="http://www.w3.org/2000/svg">
<rect x="0.5" y="0.5" width="154" height="99" stroke="#707070"/>
<path d="M55.1571 38.4143C56.4762 38.4143 57.7637 38.6148 58.9866 38.9994L65.0949 24.9089H57.6653C56.5768 24.9089 55.6909 25.7907 55.6909 26.8741C55.6909 27.9575 56.5768 28.8393 57.6653 28.8393C58.3645 28.8393 58.931 29.4031 58.931 30.099C58.931 30.7949 58.3645 31.3587 57.6653 31.3587C55.1807 31.3587 53.1596 29.3471 53.1596 26.8741C53.1596 24.4011 55.0474 22.5244 57.4172 22.3962C57.4611 22.3917 57.5061 22.3889 57.5511 22.3889H67.0193C67.4451 22.3889 67.8428 22.6022 68.0768 22.9566C68.3108 23.311 68.3502 23.7584 68.1814 24.1481L65.6361 30.0195H86.4591L87.9616 26.747L83.0638 26.2745C82.4861 26.1687 82.04 25.6732 82.0226 25.0657C82.0023 24.3664 82.5553 23.783 83.2579 23.7629L94.4783 23.2791C94.6408 23.2752 94.8057 23.2752 94.9744 23.2808C96.0899 23.3161 96.7384 23.4756 96.4971 24.7768C96.2558 26.078 95.1083 27.5504 93.801 27.3103L90.6268 27.004L88.6827 31.2372L94.1385 39.7586C95.8857 38.879 97.828 38.4138 99.8424 38.4138C103.224 38.4138 106.402 39.7245 108.792 42.1039C111.183 44.4834 112.5 47.6473 112.5 51.0127C112.5 54.3782 111.183 57.5415 108.792 59.921C106.402 62.3005 103.223 63.6111 99.8424 63.6111C96.4617 63.6111 93.2829 62.3005 90.8923 59.921C88.8025 57.841 87.5335 55.1614 87.2472 52.2725H78.274C78.2645 52.2725 78.2543 52.2719 78.2448 52.2713C78.2335 52.2713 78.2223 52.2725 78.211 52.2725C78.0349 52.2725 77.8561 52.2355 77.6856 52.1583C77.3622 52.011 77.1316 51.7456 77.0202 51.4366L64.0717 33.6279L61.3109 39.9971C62.324 40.5598 63.2651 41.2652 64.1077 42.1039C66.4984 44.4834 67.8152 47.6473 67.8152 51.0122C67.8152 54.377 66.4984 57.5409 64.1077 59.9204C61.7171 62.2999 58.5383 63.6106 55.1576 63.6106C51.7769 63.6106 48.5982 62.2999 46.2075 59.9204C43.8168 57.5409 42.5 54.377 42.5 51.0122C42.5 47.6473 43.8168 44.4834 46.2075 42.1039C48.5982 39.7245 51.7769 38.4138 55.1576 38.4138L55.1571 38.4143ZM87.4289 33.9678L80.1809 49.753H87.2466C87.5329 46.8635 88.802 44.1845 90.8917 42.1045C91.2461 41.7518 91.6185 41.4226 92.006 41.1174L87.4289 33.9678ZM89.7948 49.753H97.535L93.378 43.2607C91.448 44.8574 90.1216 47.1529 89.7948 49.753ZM99.8424 61.0917C105.426 61.0917 109.969 56.5701 109.969 51.0127C109.969 45.4554 105.426 40.9338 99.8424 40.9338C98.2938 40.9338 96.8251 41.282 95.511 41.9035L100.909 50.3358C101.158 50.7238 101.174 51.2154 100.952 51.6185C100.729 52.0216 100.304 52.2725 99.8418 52.2725H89.7942C90.4192 57.2375 94.6864 61.0917 99.8418 61.0917H99.8424ZM77.9871 48.4698L85.302 32.539H66.4039L77.9871 48.4698ZM55.1571 61.0917C60.7406 61.0917 65.2834 56.5701 65.2834 51.0127C65.2834 47.322 63.2797 44.0887 60.2984 42.3329L56.3192 51.5121C56.1128 51.9886 55.6465 52.273 55.1565 52.273C54.9894 52.273 54.819 52.24 54.6559 52.1694C54.014 51.894 53.7182 51.1527 53.9949 50.5139L57.9752 41.3319C57.0803 41.0732 56.1347 40.9344 55.1571 40.9344C49.5736 40.9344 45.0307 45.4559 45.0307 51.0133C45.0307 56.5707 49.5736 61.0922 55.1571 61.0922V61.0917Z" fill="#303030" stroke="#303030"/>
<path d="M17.1183 79.502V81.238H15.6483V78.396H20.9263V77.864H16.6003V76.632H26.9183V77.864H22.5503V78.396H27.9403V81.238H26.4003V79.502H22.5503V82.414H20.9263V79.502H17.1183ZM23.0823 82.274V81.364H26.1343V82.274H23.0823ZM23.0823 79.978H25.8123V80.874H23.0823V79.978ZM20.4223 79.978V80.874H17.6643V79.978H20.4223ZM17.3983 82.274V81.364H20.4223V82.274H17.3983ZM18.5183 86.138H20.8423V85.536H18.5183V86.138ZM20.8423 83.912H18.5183V84.528H20.8423V83.912ZM24.9723 84.528V83.912H22.4383V84.528H24.9723ZM22.4383 86.138H24.9723V85.536H22.4383V86.138ZM23.4463 87.902H26.0923C26.7923 87.902 26.9183 87.692 27.0163 86.502C27.3523 86.74 27.9823 86.95 28.4023 87.034C28.2063 88.714 27.7583 89.176 26.2323 89.176H23.2923C21.3743 89.176 20.8423 88.77 20.8423 87.3V87.258H18.5183V87.874H16.9363V82.792H26.6243V87.258H22.4383V87.3C22.4383 87.818 22.5923 87.902 23.4463 87.902ZM33.5963 86.32V87.034C34.3943 86.978 35.2203 86.908 36.0323 86.838C37.1243 85.326 37.4603 83.324 37.5583 80.818H36.2843V79.726H33.5963V80.272H36.0743V84.598H33.5963V85.144H36.1303V86.32H33.5963ZM30.9923 83.562H32.0843V82.932H30.9923V83.562ZM34.6883 82.932H33.5963V83.562H34.6883V82.932ZM33.5963 81.938H34.6883V81.322H33.5963V81.938ZM30.9923 81.322V81.938H32.0843V81.322H30.9923ZM39.1823 79.292H42.0243C42.0243 79.292 42.0103 79.838 42.0103 80.034C41.8843 85.76 41.7723 87.79 41.3243 88.434C41.0023 88.896 40.6803 89.036 40.2183 89.134C39.7983 89.218 39.1543 89.204 38.4823 89.19C38.4543 88.728 38.2723 88.056 37.9923 87.594C38.6083 87.65 39.1403 87.664 39.4063 87.664C39.6163 87.664 39.7563 87.608 39.8823 87.426C40.1763 87.048 40.3163 85.34 40.4003 80.818H39.1403C38.9583 84.57 38.3143 87.454 35.9623 89.316C35.7523 88.98 35.3463 88.518 34.9823 88.21C32.9663 88.42 30.9503 88.63 29.4383 88.756L29.2423 87.356C30.0263 87.3 31.0063 87.23 32.0843 87.16V86.32H29.6203V85.144H32.0843V84.598H29.6763V80.272H32.0843V79.726H29.3263V78.522H32.0843V77.962C31.2723 78.018 30.4743 78.06 29.7183 78.074C29.6623 77.738 29.5083 77.22 29.3543 76.898C31.4263 76.786 33.8483 76.548 35.3883 76.212L36.1163 77.458C35.3743 77.612 34.5063 77.738 33.5963 77.836V78.522H36.2843V79.292H37.6003C37.6143 78.368 37.6143 77.402 37.6143 76.366H39.2103C39.2103 77.388 39.2103 78.368 39.1823 79.292ZM56.1503 78.522C55.9963 78.704 55.7303 79.04 55.6043 79.25C54.9463 80.342 53.6163 82.106 52.2443 83.086L50.7883 81.924C51.9083 81.238 53.0003 80.006 53.3643 79.32H46.0703C45.4823 79.32 45.0203 79.362 44.3623 79.418V77.472C44.8943 77.556 45.4823 77.612 46.0703 77.612H53.6163C54.0083 77.612 54.7783 77.57 55.0443 77.486L56.1503 78.522ZM50.4383 80.412C50.4383 83.884 50.3683 86.74 46.5603 88.784L44.9223 87.454C45.3703 87.3 45.8743 87.062 46.3923 86.684C48.1703 85.452 48.5063 83.968 48.5063 81.672C48.5063 81.238 48.4783 80.86 48.4083 80.412H50.4383ZM60.5457 76.912C61.4697 77.416 63.0097 78.41 63.7377 78.914L62.6877 80.468C61.9037 79.922 60.4477 78.97 59.5237 78.452L60.5457 76.912ZM57.9417 86.852C59.5097 86.586 61.1897 86.124 62.7157 85.284C65.0957 83.954 67.0417 82.036 68.1617 80.034L69.2397 81.938C67.9377 83.87 65.9637 85.648 63.6677 86.964C62.2397 87.776 60.2377 88.476 58.9917 88.7L57.9417 86.852ZM58.3897 80.104C59.3277 80.608 60.8677 81.574 61.5817 82.078L60.5597 83.646C59.7617 83.1 58.3057 82.148 57.3677 81.658L58.3897 80.104ZM81.8957 78.508C81.7837 78.662 81.5317 79.096 81.4057 79.376C80.9297 80.468 80.1457 81.966 79.2077 83.226C80.5937 84.43 82.2877 86.222 83.1137 87.23L81.5177 88.616C80.6077 87.356 79.3057 85.928 77.9897 84.654C76.5057 86.222 74.6437 87.678 72.7257 88.588L71.2837 87.076C73.5377 86.236 75.7077 84.528 77.0237 83.058C77.9477 82.008 78.8017 80.622 79.1097 79.628H74.3637C73.7757 79.628 73.0057 79.712 72.7117 79.726V77.738C73.0897 77.794 73.9437 77.836 74.3637 77.836H79.3057C79.9077 77.836 80.4677 77.752 80.7477 77.654L81.8957 78.508ZM88.6157 86.656V78.606C88.6157 78.116 88.5737 77.416 88.4757 76.926H90.6597C90.6037 77.416 90.5337 78.032 90.5337 78.606V80.678C92.4097 81.224 95.0977 82.218 96.3857 82.848L95.5877 84.78C94.1457 84.024 92.0457 83.212 90.5337 82.694V86.656C90.5337 87.062 90.6037 88.042 90.6597 88.616H88.4757C88.5597 88.056 88.6157 87.216 88.6157 86.656ZM101.944 86.964H108.594V85.508H101.944V86.964ZM108.594 82.526H101.944V83.968H108.594V82.526ZM108.594 79.544H101.944V80.986H108.594V79.544ZM105.57 77.948H110.372V89.19H108.594V88.504H101.944V89.204H100.25V77.948H103.834C103.988 77.346 104.142 76.674 104.212 76.114L106.228 76.338C106.018 76.898 105.794 77.444 105.57 77.948ZM125.212 77.108V78.69H119.64V77.108H125.212ZM114.46 82.75V83.576H115.342V82.75H114.46ZM114.46 80.832V81.672H115.342V80.832H114.46ZM117.484 81.672V80.832H116.56V81.672H117.484ZM117.484 83.576V82.75H116.56V83.576H117.484ZM119.066 86.992H116.714V89.204H115.174V86.992H112.696V85.55H115.174V84.724H113.186V79.67H115.174V78.914H112.892V77.472H115.174V76.156H116.742V77.472H118.968V78.914H116.742V79.67H118.8V84.724H116.714V85.55H119.066V86.992ZM125.898 88.574L124.358 89.19C124.316 88.938 124.274 88.672 124.204 88.378C122.342 88.574 120.466 88.742 119.024 88.868L118.716 87.244L119.892 87.174C120.228 85.886 120.55 84.108 120.746 82.596H119.08V81.028H125.688V82.596H122.566C122.272 84.136 121.88 85.788 121.53 87.062L123.77 86.908C123.518 86.138 123.21 85.354 122.874 84.682L124.288 84.122C125.03 85.522 125.66 87.328 125.898 88.574ZM129.874 83.758H132.31V82.904H129.874V83.758ZM129.874 80.804V81.658H132.31V80.804H129.874ZM136.468 80.804H134.018V81.658H136.468V80.804ZM136.468 83.758V82.904H134.018V83.758H136.468ZM139.604 85.844V87.342H134.018V89.232H132.31V87.342H126.892V85.844H132.31V85.088H128.278V79.474H132.31V78.802H127.228V77.29H132.31V76.156H134.018V77.29H139.198V78.802H134.018V79.474H138.148V85.088H134.018V85.844H139.604Z" fill="#1C1918"/>
</svg>
