<svg width="155" height="100" viewBox="0 0 155 100" fill="none" xmlns="http://www.w3.org/2000/svg">
<rect x="0.5" y="0.5" width="154" height="99" stroke="#707070"/>
<g clip-path="url(#clip0_2246_935)">
<path d="M93.8685 56.0008C93.7723 56.0101 93.7069 56.0212 93.6415 56.0212C82.8491 56.0212 72.0568 56.0193 61.2645 56.0168C61.2268 56.0168 61.1892 55.9965 61.1294 55.9798C60.4403 52.442 58.4502 49.9017 55.1764 48.3552C55.1752 48.1966 55.2449 48.0658 55.2924 47.9301C56.6921 43.9414 58.0918 39.952 59.4934 35.9632C61.2274 31.0282 62.9621 26.0931 64.6974 21.1587C64.7455 21.0218 64.7702 20.8731 64.896 20.7368C65.0225 20.7324 65.1675 20.7238 65.3124 20.7232C67.0261 20.7219 68.7404 20.7232 70.4541 20.7219C70.6676 20.7219 70.8792 20.7226 71.0877 20.6485C71.7502 20.4135 72.1512 19.8034 72.1006 19.0872C72.0537 18.4197 71.546 17.8621 70.8668 17.743C70.7095 17.7153 70.5479 17.7029 70.3881 17.7029C68.2321 17.7005 66.0767 17.7011 63.9207 17.7011C63.8406 17.7011 63.7597 17.698 63.6795 17.7048C62.9726 17.7671 62.4772 18.1125 62.2323 18.7917C62.1916 18.9046 62.1466 19.0163 62.1009 19.1273C62.0911 19.1507 62.0682 19.1693 62.03 19.2168C61.9066 19.2198 61.7617 19.2266 61.6161 19.2266C60.5581 19.2279 59.5002 19.2254 58.4428 19.2291C58.2695 19.2291 58.0943 19.2383 57.924 19.268C57.1307 19.4037 56.6335 20.0619 56.6816 20.8836C56.7242 21.6084 57.3762 22.2469 58.1128 22.2487C58.8093 22.2506 59.5051 22.2506 60.2016 22.253C60.4409 22.2537 60.6803 22.2598 60.9017 22.2635C60.9973 22.4147 60.9184 22.5226 60.8801 22.6318C60.4927 23.7434 60.1029 24.8544 59.713 25.9654C57.2344 33.0213 54.7557 40.0772 52.2765 47.1325C52.2284 47.2701 52.1747 47.4064 52.1186 47.5557C52.0143 47.5631 51.9242 47.5742 51.8342 47.5742C51.6201 47.5742 51.4054 47.5717 51.1914 47.5649C50.5511 47.544 49.8349 48.0455 49.6887 48.8252C49.5715 49.4514 49.8546 50.2484 50.6646 50.5667C50.7627 50.6056 50.8644 50.6352 50.9718 50.6709C51.0045 50.906 50.8725 51.0898 50.8139 51.2891C50.7577 51.4791 50.6769 51.6623 50.6035 51.8584C50.5227 51.8634 50.4579 51.8769 50.395 51.8708C46.9509 51.5364 43.7364 53.7418 42.7833 57.0662C41.6563 60.9982 43.9936 65.1023 47.9639 66.0769C52.1395 67.1022 56.0166 64.441 56.8106 60.5176C57.4114 57.5473 56.1659 54.78 53.9143 53.1736C53.7959 53.0891 53.6805 53.0015 53.5713 52.9213C53.6694 52.4803 53.9772 51.6265 54.1419 51.3421C54.2326 51.381 54.3313 51.4137 54.4208 51.463C56.5169 52.6265 57.7538 54.384 58.0758 56.7682C58.1153 57.0594 58.1221 57.3549 58.1369 57.6485C58.1708 58.324 58.5971 58.8786 59.2442 59.0704C59.3583 59.1043 59.4798 59.1185 59.5989 59.1259C59.7593 59.1358 59.9203 59.1321 60.0807 59.1321C71.6898 59.1321 83.2989 59.1321 94.9079 59.1321C95.0683 59.1321 95.2293 59.1296 95.3897 59.129C96.1466 59.1265 96.8487 58.4554 96.8604 57.6614C96.869 57.0433 96.9381 56.4326 97.0948 55.8342C97.7302 53.4124 99.7091 51.3211 102.53 50.7826C102.895 50.7129 103.274 50.7092 103.647 50.6734C103.806 50.658 103.968 50.6555 104.124 50.621C104.842 50.4606 105.347 49.8468 105.344 49.1257C105.341 48.4415 104.922 47.7975 104.151 47.602C104.011 47.5662 103.86 47.5643 103.713 47.5649C101.948 47.5686 100.293 48.0079 98.777 48.9079C96.2003 50.439 94.5884 52.6777 93.9623 55.6165C93.937 55.7337 93.9055 55.8503 93.8691 55.9989L93.8685 56.0008ZM52.2827 56.5344C52.3925 56.6448 52.4634 56.7047 52.5214 56.7756C53.2123 57.6238 53.4739 58.6003 53.2962 59.6694C52.989 61.5176 51.2987 62.9148 49.2729 62.657C47.0768 62.3775 45.6185 60.2382 46.2644 58.0501C46.6647 56.6948 47.6122 55.8694 48.9811 55.5289C49.0798 55.5042 49.189 55.4672 49.2963 55.5665C49.2642 55.6739 49.2346 55.7892 49.1958 55.9015C49.1088 56.1544 49.0163 56.4055 48.9281 56.6578C48.6992 57.3141 48.4648 57.9693 48.2452 58.6287C48.0058 59.3461 48.3809 60.2234 49.1804 60.5225C49.962 60.8156 50.8108 60.4572 51.1519 59.686C51.2006 59.5762 51.2395 59.4621 51.279 59.3486C51.5535 58.5664 51.8268 57.7836 52.1019 57.0014C52.15 56.8644 52.2068 56.73 52.2827 56.535V56.5344Z" fill="#303030"/>
<path d="M98.0514 59.063C98.0193 63.0826 101.349 66.2935 105.266 66.2997C109.017 66.3065 112.491 63.3004 112.5 59.076C112.508 55.0521 109.272 51.8393 105.279 51.8406C101.099 51.8418 98.015 55.2624 98.0514 59.063ZM105.258 62.6823C103.291 62.6989 101.644 61.0334 101.653 59.0445C101.66 57.3333 103.01 55.4629 105.268 55.453C107.31 55.4438 108.899 57.0724 108.89 59.0741C108.88 61.3227 107.007 62.7267 105.258 62.6817V62.6823Z" fill="#303030"/>
</g>
<path d="M50.074 82.644H62.954V84.45H50.074V82.644ZM66.3 81.034L67.266 80.642C67.602 81.174 67.896 81.888 67.98 82.378L66.93 82.798C66.86 82.322 66.608 81.58 66.3 81.034ZM66.16 80.32V83.218C66.79 83.162 67.462 83.092 68.148 83.022V80.32H66.16ZM70.122 84.086L69.492 84.156V88.734C69.492 89.364 69.394 89.728 68.988 89.966C68.596 90.19 68.078 90.218 67.28 90.218C67.238 89.854 67.056 89.266 66.888 88.916C67.336 88.93 67.798 88.93 67.938 88.93C68.106 88.93 68.148 88.874 68.148 88.706V84.31L66.16 84.52C66.132 86.368 65.936 88.706 64.998 90.204C64.76 89.98 64.2 89.616 63.878 89.476C64.69 88.146 64.83 86.27 64.858 84.674L64.046 84.758L63.878 83.428L64.858 83.344V79.032H66.132C66.286 78.43 66.454 77.688 66.51 77.128L68.288 77.408C68.078 77.982 67.854 78.556 67.658 79.032H69.492V82.882L70.08 82.812L70.122 84.086ZM67.574 84.702V87.894H66.622V84.702H67.574ZM74.518 84.506H72.138C72.418 85.262 72.796 85.948 73.286 86.55C73.804 85.962 74.224 85.276 74.518 84.506ZM75.456 82.994L76.506 83.344C76.1 85.122 75.4 86.536 74.462 87.628C75.232 88.174 76.156 88.594 77.248 88.832C76.898 89.154 76.478 89.784 76.254 90.204C75.092 89.882 74.126 89.378 73.328 88.706C72.516 89.35 71.564 89.84 70.514 90.218C70.332 89.812 69.94 89.168 69.632 88.832C70.598 88.552 71.48 88.118 72.222 87.544C71.634 86.76 71.158 85.85 70.794 84.8L72.082 84.506H70.374V83.05H70.962C70.71 82.798 70.108 82.308 69.8 82.126C70.794 81.356 70.892 80.334 70.892 79.48V77.646H75.344V80.74C75.344 80.978 75.33 81.118 75.358 81.16C75.386 81.216 75.442 81.23 75.498 81.23H75.722C75.792 81.23 75.862 81.216 75.904 81.174C75.96 81.146 75.988 81.062 76.016 80.88C76.044 80.684 76.058 80.25 76.072 79.718C76.338 79.942 76.856 80.208 77.262 80.334C77.22 80.908 77.164 81.524 77.066 81.776C76.968 82.042 76.8 82.238 76.59 82.336C76.394 82.448 76.086 82.504 75.834 82.504H75.106C74.77 82.504 74.392 82.392 74.168 82.154C73.944 81.93 73.846 81.622 73.846 80.754V79.088H72.362V79.508C72.362 80.698 72.138 82.154 70.99 83.05H75.19L75.456 82.994ZM82.512 85.948L84.122 86.396C83.464 87.628 82.414 88.846 81.42 89.602C81.098 89.322 80.44 88.846 80.048 88.622C81.042 88.006 81.994 86.97 82.512 85.948ZM83.282 83.442V84.254H88.042V83.442H83.282ZM83.282 81.482V82.28H88.042V81.482H83.282ZM89.75 85.5H86.474V88.594C86.474 89.35 86.348 89.756 85.816 89.98C85.284 90.218 84.556 90.218 83.576 90.218C83.52 89.77 83.31 89.182 83.114 88.748C83.73 88.776 84.402 88.776 84.598 88.762C84.808 88.762 84.864 88.72 84.864 88.552V85.5H81.658V80.236H84.444C84.5 79.9 84.556 79.564 84.57 79.27H80.734V81.902C80.734 84.282 80.538 87.88 79.306 90.19C78.984 89.91 78.256 89.518 77.836 89.364C78.998 87.222 79.096 84.086 79.096 81.902V77.758H90.772V79.27H86.39L86.586 79.284L86.292 80.236H89.75V85.5ZM87.16 86.676L88.434 85.878C89.358 86.69 90.506 87.81 91.024 88.608L89.652 89.504C89.19 88.706 88.084 87.516 87.16 86.676ZM95.238 77.212L96.89 77.744C96.512 78.682 96.078 79.634 95.56 80.572V90.19H93.852V83.176C93.53 83.582 93.194 83.96 92.872 84.296C92.69 83.89 92.186 82.966 91.892 82.56C93.222 81.286 94.496 79.27 95.238 77.212ZM105.024 80.152V81.832H103.484V88.188C103.484 89.266 103.232 89.7 102.56 89.952C101.874 90.218 100.824 90.246 99.284 90.232C99.186 89.756 98.892 89.014 98.64 88.58C99.718 88.622 100.95 88.622 101.272 88.608C101.622 88.608 101.748 88.496 101.748 88.188V81.832H96.414V80.152H101.748V77.296H103.484V80.152H105.024ZM100.446 86.074L98.864 86.886C98.5 86.032 97.674 84.59 97.044 83.526L98.528 82.84C99.158 83.862 100.026 85.234 100.446 86.074Z" fill="#1C1918"/>
<defs>
<clipPath id="clip0_2246_935">
<rect width="70" height="70" fill="white" transform="matrix(-1 0 0 1 112.5 7)"/>
</clipPath>
</defs>
</svg>
