<svg width="300" height="120" viewBox="0 0 300 120" fill="none" xmlns="http://www.w3.org/2000/svg">
<rect x="0.5" y="0.5" width="299" height="119" stroke="#707070"/>
<path d="M129.046 78.001C128.922 78.0129 128.838 78.0271 128.754 78.0271C114.878 78.0271 101.002 78.0248 87.1264 78.0216C87.078 78.0216 87.0297 77.9954 86.9527 77.974C86.0668 73.4254 83.5081 70.1593 79.299 68.1709C79.2974 67.967 79.387 67.7989 79.4481 67.6244C81.2477 62.496 83.0473 57.3668 84.8493 52.2384C87.0788 45.8933 89.3091 39.5483 91.5402 33.204C91.6021 33.0279 91.6338 32.8368 91.7956 32.6615C91.9582 32.6559 92.1446 32.6448 92.331 32.644C94.5343 32.6424 96.7384 32.644 98.9417 32.6424C99.2162 32.6424 99.4882 32.6432 99.7563 32.5481C100.608 32.2459 101.124 31.4615 101.059 30.5406C100.998 29.6825 100.346 28.9655 99.4723 28.8124C99.2701 28.7767 99.0623 28.7608 98.8569 28.7608C96.0849 28.7577 93.3137 28.7585 90.5417 28.7585C90.4385 28.7585 90.3346 28.7545 90.2315 28.7632C89.3226 28.8433 88.6857 29.2875 88.3709 30.1607C88.3185 30.3059 88.2606 30.4494 88.2019 30.5922C88.1892 30.6223 88.1599 30.6461 88.1107 30.7072C87.9521 30.7112 87.7657 30.7199 87.5785 30.7199C86.2183 30.7215 84.8581 30.7183 83.4986 30.7231C83.2758 30.7231 83.0505 30.735 82.8316 30.773C81.8116 30.9475 81.1724 31.7938 81.2342 32.8502C81.289 33.7822 82.1273 34.6031 83.0743 34.6054C83.9697 34.6078 84.8644 34.6078 85.7599 34.611C86.0676 34.6118 86.3753 34.6197 86.6601 34.6245C86.783 34.8188 86.6815 34.9576 86.6323 35.098C86.1342 36.5272 85.633 37.9556 85.1317 39.3841C81.9449 48.4559 78.7581 57.5278 75.5705 66.5989C75.5086 66.7757 75.4396 66.951 75.3674 67.143C75.2334 67.1525 75.1176 67.1668 75.0018 67.1668C74.7266 67.1668 74.4506 67.1636 74.1753 67.1549C73.3521 67.1279 72.4312 67.7727 72.2433 68.7752C72.0926 69.5803 72.4566 70.605 73.498 71.0143C73.6241 71.0642 73.755 71.1023 73.893 71.1483C73.935 71.4505 73.7653 71.6868 73.6899 71.943C73.6178 72.1873 73.5139 72.4229 73.4195 72.6751C73.3156 72.6814 73.2323 72.6989 73.1514 72.6909C68.7233 72.2611 64.5903 75.0965 63.3649 79.3707C61.9159 84.4261 64.9211 89.7029 70.0257 90.956C75.3944 92.2742 80.3792 88.8526 81.4 83.8083C82.1725 79.9894 80.5712 76.4314 77.6762 74.366C77.524 74.2574 77.3756 74.1447 77.2353 74.0416C77.3614 73.4746 77.7571 72.3769 77.9689 72.0112C78.0855 72.0612 78.2124 72.1032 78.3274 72.1667C81.0225 73.6625 82.6127 75.9222 83.0267 78.9876C83.0775 79.362 83.0862 79.7419 83.1052 80.1194C83.1489 80.9879 83.6969 81.7009 84.5289 81.9476C84.6756 81.9912 84.8319 82.0095 84.985 82.019C85.1912 82.0317 85.3982 82.0269 85.6044 82.0269C100.53 82.0269 115.456 82.0269 130.382 82.0269C130.589 82.0269 130.796 82.0237 131.002 82.0229C131.975 82.0198 132.878 81.1568 132.893 80.1361C132.904 79.3414 132.993 78.5562 133.194 77.7868C134.011 74.673 136.555 71.9843 140.182 71.2919C140.652 71.2022 141.139 71.1975 141.618 71.1515C141.823 71.1316 142.031 71.1285 142.231 71.084C143.155 70.8778 143.804 70.0887 143.8 69.1615C143.797 68.2819 143.257 67.4539 142.267 67.2024C142.087 67.1564 141.892 67.1541 141.704 67.1549C139.434 67.1596 137.306 67.7243 135.357 68.8815C132.044 70.8501 129.972 73.7284 129.166 77.5068C129.134 77.6575 129.094 77.8074 129.047 77.9986L129.046 78.001ZM75.5784 78.687C75.7196 78.829 75.8108 78.9059 75.8853 78.9971C76.7737 80.0877 77.1099 81.3432 76.8815 82.7177C76.4865 85.094 74.3134 86.8904 71.7087 86.5589C68.8851 86.1996 67.0102 83.449 67.8406 80.6358C68.3553 78.8932 69.5736 77.832 71.3335 77.3942C71.4604 77.3625 71.6008 77.3149 71.7388 77.4426C71.6976 77.5806 71.6595 77.7289 71.6096 77.8733C71.4977 78.1985 71.3788 78.5213 71.2653 78.8457C70.9711 79.6895 70.6697 80.5319 70.3873 81.3797C70.0796 82.3021 70.5618 83.43 71.5897 83.8146C72.5946 84.1914 73.686 83.7306 74.1246 82.7391C74.1872 82.598 74.2372 82.4512 74.288 82.3053C74.6409 81.2996 74.9923 80.2931 75.346 79.2874C75.4079 79.1114 75.4808 78.9384 75.5784 78.6878V78.687Z" fill="#303030"/>
<path d="M134.423 81.938C134.382 87.106 138.663 91.2343 143.7 91.2422C148.522 91.251 152.989 87.386 153 81.9546C153.01 76.781 148.85 72.6504 143.716 72.652C138.342 72.6536 134.376 77.0515 134.423 81.938ZM143.689 86.5913C141.16 86.6127 139.042 84.4713 139.054 81.9142C139.062 79.714 140.799 77.3093 143.701 77.2966C146.327 77.2847 148.37 79.3785 148.359 81.9523C148.345 84.8432 145.937 86.6484 143.689 86.5905V86.5913Z" fill="#303030"/>
<path d="M173.656 59.736H188.376V61.8H173.656V59.736ZM192.2 57.896L193.304 57.448C193.688 58.056 194.024 58.872 194.12 59.432L192.92 59.912C192.84 59.368 192.552 58.52 192.2 57.896ZM192.04 57.08V60.392C192.76 60.328 193.528 60.248 194.312 60.168V57.08H192.04ZM196.568 61.384L195.848 61.464V66.696C195.848 67.416 195.736 67.832 195.272 68.104C194.824 68.36 194.232 68.392 193.32 68.392C193.272 67.976 193.064 67.304 192.872 66.904C193.384 66.92 193.912 66.92 194.072 66.92C194.264 66.92 194.312 66.856 194.312 66.664V61.64L192.04 61.88C192.008 63.992 191.784 66.664 190.712 68.376C190.44 68.12 189.8 67.704 189.432 67.544C190.36 66.024 190.52 63.88 190.552 62.056L189.624 62.152L189.432 60.632L190.552 60.536V55.608H192.008C192.184 54.92 192.376 54.072 192.44 53.432L194.472 53.752C194.232 54.408 193.976 55.064 193.752 55.608H195.848V60.008L196.52 59.928L196.568 61.384ZM193.656 62.088V65.736H192.568V62.088H193.656ZM201.592 61.864H198.872C199.192 62.728 199.624 63.512 200.184 64.2C200.776 63.528 201.256 62.744 201.592 61.864ZM202.664 60.136L203.864 60.536C203.4 62.568 202.6 64.184 201.528 65.432C202.408 66.056 203.464 66.536 204.712 66.808C204.312 67.176 203.832 67.896 203.576 68.376C202.248 68.008 201.144 67.432 200.232 66.664C199.304 67.4 198.216 67.96 197.016 68.392C196.808 67.928 196.36 67.192 196.008 66.808C197.112 66.488 198.12 65.992 198.968 65.336C198.296 64.44 197.752 63.4 197.336 62.2L198.808 61.864H196.856V60.2H197.528C197.24 59.912 196.552 59.352 196.2 59.144C197.336 58.264 197.448 57.096 197.448 56.12V54.024H202.536V57.56C202.536 57.832 202.52 57.992 202.552 58.04C202.584 58.104 202.648 58.12 202.712 58.12H202.968C203.048 58.12 203.128 58.104 203.176 58.056C203.24 58.024 203.272 57.928 203.304 57.72C203.336 57.496 203.352 57 203.368 56.392C203.672 56.648 204.264 56.952 204.728 57.096C204.68 57.752 204.616 58.456 204.504 58.744C204.392 59.048 204.2 59.272 203.96 59.384C203.736 59.512 203.384 59.576 203.096 59.576H202.264C201.88 59.576 201.448 59.448 201.192 59.176C200.936 58.92 200.824 58.568 200.824 57.576V55.672H199.128V56.152C199.128 57.512 198.872 59.176 197.56 60.2H202.36L202.664 60.136ZM210.728 63.512L212.568 64.024C211.816 65.432 210.616 66.824 209.48 67.688C209.112 67.368 208.36 66.824 207.912 66.568C209.048 65.864 210.136 64.68 210.728 63.512ZM211.608 60.648V61.576H217.048V60.648H211.608ZM211.608 58.408V59.32H217.048V58.408H211.608ZM219 63H215.256V66.536C215.256 67.4 215.112 67.864 214.504 68.12C213.896 68.392 213.064 68.392 211.944 68.392C211.88 67.88 211.64 67.208 211.416 66.712C212.12 66.744 212.888 66.744 213.112 66.728C213.352 66.728 213.416 66.68 213.416 66.488V63H209.752V56.984H212.936C213 56.6 213.064 56.216 213.08 55.88H208.696V58.888C208.696 61.608 208.472 65.72 207.064 68.36C206.696 68.04 205.864 67.592 205.384 67.416C206.712 64.968 206.824 61.384 206.824 58.888V54.152H220.168V55.88H215.16L215.384 55.896L215.048 56.984H219V63ZM216.04 64.344L217.496 63.432C218.552 64.36 219.864 65.64 220.456 66.552L218.888 67.576C218.36 66.664 217.096 65.304 216.04 64.344ZM225.272 53.528L227.16 54.136C226.728 55.208 226.232 56.296 225.64 57.368V68.36H223.688V60.344C223.32 60.808 222.936 61.24 222.568 61.624C222.36 61.16 221.784 60.104 221.448 59.64C222.968 58.184 224.424 55.88 225.272 53.528ZM236.456 56.888V58.808H234.696V66.072C234.696 67.304 234.408 67.8 233.64 68.088C232.856 68.392 231.656 68.424 229.896 68.408C229.784 67.864 229.448 67.016 229.16 66.52C230.392 66.568 231.8 66.568 232.168 66.552C232.568 66.552 232.712 66.424 232.712 66.072V58.808H226.616V56.888H232.712V53.624H234.696V56.888H236.456ZM231.224 63.656L229.416 64.584C229 63.608 228.056 61.96 227.336 60.744L229.032 59.96C229.752 61.128 230.744 62.696 231.224 63.656Z" fill="#1C1918"/>
</svg>
