<svg xmlns="http://www.w3.org/2000/svg" xmlns:xlink="http://www.w3.org/1999/xlink" width="300" height="120" viewBox="0 0 300 120"><defs><clipPath id="a"><rect width="80.652" height="70.929" transform="translate(0 0)" fill="none"/></clipPath></defs><g transform="translate(-428 -767)"><g transform="translate(428 767)" fill="#fff" stroke="#707070" stroke-width="1"><rect width="300" height="120" stroke="none"/><rect x="0.5" y="0.5" width="299" height="119" fill="none"/></g><g transform="translate(469 792)" clip-path="url(#a)"><path d="M0,61.048a9.881,9.881,0,1,0,14.3-8.836l.8-3.456,9.61,13.63a2.32,2.32,0,0,0,1.9.983H57.028a2.32,2.32,0,0,0,2.321-2.321A11.436,11.436,0,0,1,70.772,49.625a2.321,2.321,0,1,0,0-4.642,16.09,16.09,0,0,0-15.9,13.744H27.805L16.462,42.64l10.739-38h6.553a2.321,2.321,0,0,0,0-4.642h-8.4a2.321,2.321,0,0,0-2.263,1.8L9.754,51.17A9.891,9.891,0,0,0,0,61.048m4.642,0a5.248,5.248,0,0,1,4.02-5.094L7.618,60.532a2.321,2.321,0,0,0,4.525,1.037L13.2,57a5.237,5.237,0,1,1-8.554,4.052m56.249,0a9.881,9.881,0,1,0,9.881-9.88,9.892,9.892,0,0,0-9.881,9.88m4.642,0a5.239,5.239,0,1,1,5.239,5.239,5.244,5.244,0,0,1-5.239-5.239M70.772,58.3a2.744,2.744,0,1,1-2.744,2.744A2.744,2.744,0,0,1,70.772,58.3" fill="#303030"/></g><path d="M2.672-9.712H7.024v3.328H8.88V-9.712h4.4v1.984h1.76v-3.248H8.88v-.608h4.992v-1.408H2.08v1.408H7.024v.608H.992v3.248h1.68ZM9.488-6.544h3.488v-1.04H9.488Zm0-2.624v1.024h3.12V-9.168Zm-3.04,0H3.3v1.024H6.448ZM2.992-6.544H6.448v-1.04H2.992Zm1.28,4.416v-.688H6.928v.688ZM6.928-4.672v.7H4.272v-.7Zm4.72.7h-2.9v-.7h2.9Zm-2.9,1.84v-.688h2.9v.688ZM9.9-.112c-.976,0-1.152-.1-1.152-.688V-.848h4.784v-5.1H2.464V-.144H4.272v-.7H6.928V-.8c0,1.68.608,2.144,2.8,2.144h3.36c1.744,0,2.256-.528,2.48-2.448a4.866,4.866,0,0,1-1.584-.608c-.112,1.36-.256,1.6-1.056,1.6ZM21.5-1.92h2.9V-3.264H21.5v-.624h2.832V-8.832H21.5v-.624h3.072v1.248h1.456c-.112,2.864-.5,5.152-1.744,6.88-.928.08-1.872.16-2.784.224ZM18.528-5.072v-.72h1.248v.72Zm4.224-.72v.72H21.5v-.72ZM21.5-6.928v-.7h1.248v.7Zm-2.976-.7h1.248v.7H18.528Zm9.36-2.32c.032-1.056.032-2.176.032-3.344H26.1c0,1.184,0,2.288-.016,3.344h-1.5v-.88H21.5v-.784c1.04-.112,2.032-.256,2.88-.432l-.832-1.424a49.573,49.573,0,0,1-6.9.784,5.926,5.926,0,0,1,.416,1.344c.864-.016,1.776-.064,2.7-.128v.64H16.624v1.376h3.152v.624H17.024v4.944h2.752v.624H16.96V-1.92h2.816v.96c-1.232.08-2.352.16-3.248.224l.224,1.6C18.48.72,20.784.48,23.088.24A6.234,6.234,0,0,1,24.208,1.5C26.9-.624,27.632-3.92,27.84-8.208h1.44c-.1,5.168-.256,7.12-.592,7.552a.581.581,0,0,1-.544.272c-.3,0-.912-.016-1.616-.08a4.455,4.455,0,0,1,.56,1.824A10.733,10.733,0,0,0,29.072,1.3,1.786,1.786,0,0,0,30.336.5c.512-.736.64-3.056.784-9.6,0-.224.016-.848.016-.848Zm9.936-1.472c.048.256.16.784.288,1.456-1.376.224-2.608.4-3.168.464-.5.064-.976.1-1.488.112l.432,2.208c.544-.144.96-.224,1.472-.336.5-.08,1.728-.288,3.136-.512.144.816.32,1.712.48,2.576-1.616.256-3.1.5-3.84.592-.512.064-1.232.16-1.664.176l.448,2.144c.368-.1.912-.208,1.6-.336s2.192-.384,3.824-.656c.256,1.344.464,2.448.544,2.912.1.464.144,1.024.224,1.616l2.3-.416C42.272.064,42.112-.512,42-.992c-.1-.5-.32-1.568-.576-2.88,1.408-.224,2.7-.432,3.472-.56.608-.1,1.264-.208,1.7-.24L46.16-6.784c-.416.128-1.008.256-1.632.384-.72.144-2.032.368-3.472.608-.176-.88-.336-1.76-.5-2.56,1.328-.208,2.544-.4,3.2-.512.48-.064,1.12-.16,1.472-.192l-.384-2.1c-.384.112-.992.24-1.5.336-.576.112-1.792.3-3.152.528-.128-.72-.224-1.248-.256-1.472-.08-.384-.128-.928-.176-1.248L37.5-12.64C37.616-12.256,37.728-11.888,37.824-11.424ZM56.08-9.5l-1.9.624a26.65,26.65,0,0,1,1.3,3.552L57.392-6C57.168-6.736,56.384-8.816,56.08-9.5Zm5.9,1.168-2.24-.72A10.943,10.943,0,0,1,57.7-3.568,10.766,10.766,0,0,1,52.384-.224l1.68,1.712a12.5,12.5,0,0,0,5.36-3.968A12.9,12.9,0,0,0,61.6-7.168C61.7-7.488,61.792-7.824,61.984-8.336Zm-9.616-.32-1.92.688a32.317,32.317,0,0,1,1.456,3.7l1.952-.736C53.536-5.9,52.768-7.84,52.368-8.656Zm20.8-3.824-2.336-.768a7.7,7.7,0,0,1-.72,1.68A14.088,14.088,0,0,1,65.12-6.416l1.792,1.328A18.237,18.237,0,0,0,70.944-8.96h4.5a11.374,11.374,0,0,1-2.272,4.368A12.751,12.751,0,0,1,66.72-.64l1.888,1.7a14.94,14.94,0,0,0,6.464-4.512A16.694,16.694,0,0,0,77.856-8.8a6.406,6.406,0,0,1,.528-1.152L76.752-10.96a5.13,5.13,0,0,1-1.392.192H72.144c.016-.032.032-.048.048-.08C72.384-11.2,72.8-11.92,73.168-12.48ZM85.456-5.744l-1.808-.848A16.673,16.673,0,0,1,80.64-2.464L82.368-1.28A25.112,25.112,0,0,0,85.456-5.744Zm6.88-.9L90.592-5.7a30.378,30.378,0,0,1,2.592,4.288l1.888-1.024A37.191,37.191,0,0,0,92.336-6.64Zm-.1-6.3-1.264.528a17.4,17.4,0,0,1,1.2,2.112l1.3-.544A23.817,23.817,0,0,0,92.24-12.944Zm2.08-.448-1.264.512A15.577,15.577,0,0,1,94.3-10.768l1.264-.56A18.182,18.182,0,0,0,94.32-13.392Zm-5.1.768H86.848a8.288,8.288,0,0,1,.144,1.392v1.28H82.928a12.182,12.182,0,0,1-1.552-.128v2.128c.448-.048,1.072-.064,1.552-.064h4.064V-8c0,.752,0,5.824-.016,6.416-.016.416-.176.576-.592.576A11.066,11.066,0,0,1,84.608-1.2L84.8.784a23.1,23.1,0,0,0,2.608.144c1.136,0,1.664-.576,1.664-1.5v-7.44h3.744c.432,0,1.056.016,1.568.048v-2.1a12.949,12.949,0,0,1-1.584.112H89.072v-1.28A12.969,12.969,0,0,1,89.216-12.624Zm8.256,5.216V-4.9c.592-.048,1.664-.08,2.576-.08h8.592c.672,0,1.488.064,1.872.08V-7.408c-.416.032-1.12.1-1.872.1h-8.592C99.216-7.312,98.048-7.36,97.472-7.408Zm25.44-4.5-1.344.56a13.707,13.707,0,0,1,1.408,2.48l1.392-.624C124-10.208,123.36-11.232,122.912-11.9Zm2.1-.88-1.328.624a14.981,14.981,0,0,1,1.488,2.4l1.344-.656A21.191,21.191,0,0,0,125.008-12.784ZM116.528-1.3a17.325,17.325,0,0,1-.16,2.224h2.512c-.08-.656-.16-1.776-.16-2.224V-5.824a42.864,42.864,0,0,1,5.792,2.384l.9-2.224a55.663,55.663,0,0,0-6.688-2.5V-10.5a17.4,17.4,0,0,1,.144-1.936h-2.5a11.29,11.29,0,0,1,.16,1.936Z" transform="translate(559.652 834)" fill="#1c1918"/></g></svg>