<svg xmlns="http://www.w3.org/2000/svg" xmlns:xlink="http://www.w3.org/1999/xlink" width="130" height="100" viewBox="0 0 130 100"><defs><clipPath id="a"><rect width="60" height="52.5" transform="translate(0 0)" fill="none"/></clipPath></defs><g transform="translate(-428 -780)"><path d="M1,1V99H129V1H1M0,0H130V100H0Z" transform="translate(428 780)" fill="#707070"/><g transform="translate(462.348 790)" clip-path="url(#a)"><path d="M0,45.186a7.351,7.351,0,1,0,10.637-6.54l.592-2.558,7.149,10.089a1.728,1.728,0,0,0,1.411.728H42.425a1.725,1.725,0,0,0,1.727-1.718,8.486,8.486,0,0,1,8.5-8.455,1.718,1.718,0,1,0,0-3.436A11.95,11.95,0,0,0,40.824,43.468H20.685L12.247,31.561,20.236,3.436h4.875a1.718,1.718,0,1,0,0-3.436H18.859a1.725,1.725,0,0,0-1.684,1.335L7.256,37.875A7.339,7.339,0,0,0,0,45.186m3.453,0a3.888,3.888,0,0,1,2.991-3.77L5.667,44.8a1.718,1.718,0,0,0,1.3,2.057,1.744,1.744,0,0,0,.388.044,1.726,1.726,0,0,0,1.681-1.333l.783-3.385a3.885,3.885,0,1,1-6.364,3m41.846,0a7.351,7.351,0,1,0,7.351-7.313A7.341,7.341,0,0,0,45.3,45.186m3.453,0a3.9,3.9,0,1,1,3.9,3.878,3.892,3.892,0,0,1-3.9-3.878m3.9-2.031a2.031,2.031,0,1,1-2.041,2.031,2.036,2.036,0,0,1,2.041-2.031" transform="translate(0 0)" fill="#303030"/></g><path d="M-46-7.284h3.264v2.5h1.392v-2.5h3.3V-5.8h1.32V-8.232h-4.62v-.456H-37.6V-9.744H-46.44v1.056h3.708v.456h-4.524V-5.8H-46Zm5.112,2.376h2.616v-.78h-2.616Zm0-1.968v.768h2.34v-.768Zm-2.28,0h-2.364v.768h2.364Zm-2.592,1.968h2.592v-.78h-2.592ZM-44.8-1.6v-.516H-42.8V-1.6ZM-42.8-3.5v.528H-44.8V-3.5Zm3.54.528h-2.172V-3.5h2.172ZM-41.436-1.6v-.516h2.172V-1.6Zm.864,1.512c-.732,0-.864-.072-.864-.516V-.636h3.588V-4.464h-8.3V-.108H-44.8V-.636H-42.8V-.6c0,1.26.456,1.608,2.1,1.608h2.52c1.308,0,1.692-.4,1.86-1.836a3.649,3.649,0,0,1-1.188-.456c-.084,1.02-.192,1.2-.792,1.2Zm8.7-1.356H-29.7V-2.448h-2.172v-.468h2.124V-6.624h-2.124v-.468h2.3v.936h1.092A9.252,9.252,0,0,1-29.784-1c-.7.06-1.4.12-2.088.168ZM-34.1-3.8v-.54h.936v.54Zm3.168-.54v.54h-.936v-.54Zm-.936-.852v-.528h.936V-5.2ZM-34.1-5.724h.936V-5.2H-34.1Zm7.02-1.74c.024-.792.024-1.632.024-2.508h-1.368c0,.888,0,1.716-.012,2.508h-1.128v-.66h-2.3v-.588c.78-.084,1.524-.192,2.16-.324l-.624-1.068a37.18,37.18,0,0,1-5.172.588A4.445,4.445,0,0,1-35.2-8.508c.648-.012,1.332-.048,2.028-.1v.48h-2.364v1.032h2.364v.468h-2.064v3.708h2.064v.468H-35.28V-1.44h2.112v.72c-.924.06-1.764.12-2.436.168l.168,1.2C-34.14.54-32.412.36-30.684.18a4.675,4.675,0,0,1,.84.948c2.016-1.6,2.568-4.068,2.724-7.284h1.08c-.072,3.876-.192,5.34-.444,5.664a.436.436,0,0,1-.408.2c-.228,0-.684-.012-1.212-.06a3.341,3.341,0,0,1,.42,1.368A8.05,8.05,0,0,0-26.2.972a1.339,1.339,0,0,0,.948-.6c.384-.552.48-2.292.588-7.2,0-.168.012-.636.012-.636Zm7.452-1.1c.036.192.12.588.216,1.092-1.032.168-1.956.3-2.376.348-.372.048-.732.072-1.116.084l.324,1.656c.408-.108.72-.168,1.1-.252.372-.06,1.3-.216,2.352-.384.108.612.24,1.284.36,1.932-1.212.192-2.328.372-2.88.444-.384.048-.924.12-1.248.132l.336,1.608c.276-.072.684-.156,1.2-.252s1.644-.288,2.868-.492c.192,1.008.348,1.836.408,2.184s.108.768.168,1.212l1.728-.312C-16.3.048-16.416-.384-16.5-.744s-.24-1.176-.432-2.16c1.056-.168,2.028-.324,2.6-.42.456-.072.948-.156,1.272-.18l-.324-1.584c-.312.1-.756.192-1.224.288-.54.108-1.524.276-2.6.456-.132-.66-.252-1.32-.372-1.92,1-.156,1.908-.3,2.4-.384.36-.048.84-.12,1.1-.144l-.288-1.572c-.288.084-.744.18-1.128.252-.432.084-1.344.228-2.364.4-.1-.54-.168-.936-.192-1.1-.06-.288-.1-.7-.132-.936l-1.692.276C-19.788-9.192-19.7-8.916-19.632-8.568ZM-5.94-7.128l-1.428.468A19.987,19.987,0,0,1-6.4-4l1.44-.5C-5.124-5.052-5.712-6.612-5.94-7.128Zm4.428.876-1.68-.54A8.207,8.207,0,0,1-4.728-2.676,8.074,8.074,0,0,1-8.712-.168l1.26,1.284A9.371,9.371,0,0,0-3.432-1.86,9.676,9.676,0,0,0-1.8-5.376C-1.728-5.616-1.656-5.868-1.512-6.252Zm-7.212-.24-1.44.516A24.238,24.238,0,0,1-9.072-3.2l1.464-.552C-7.848-4.428-8.424-5.88-8.724-6.492ZM6.876-9.36,5.124-9.936a5.773,5.773,0,0,1-.54,1.26A10.566,10.566,0,0,1,.84-4.812l1.344,1a13.678,13.678,0,0,0,3.024-2.9H8.58a8.53,8.53,0,0,1-1.7,3.276A9.564,9.564,0,0,1,2.04-.48L3.456.792A11.2,11.2,0,0,0,8.3-2.592,12.521,12.521,0,0,0,10.392-6.6a4.8,4.8,0,0,1,.4-.864L9.564-8.22a3.848,3.848,0,0,1-1.044.144H6.108c.012-.024.024-.036.036-.06C6.288-8.4,6.6-8.94,6.876-9.36Zm9.216,5.052-1.356-.636a12.5,12.5,0,0,1-2.256,3.1l1.3.888A18.834,18.834,0,0,0,16.092-4.308Zm5.16-.672-1.308.708a22.784,22.784,0,0,1,1.944,3.216L23.3-1.824A27.894,27.894,0,0,0,21.252-4.98ZM21.18-9.708l-.948.4a13.048,13.048,0,0,1,.9,1.584l.972-.408A17.864,17.864,0,0,0,21.18-9.708Zm1.56-.336-.948.384a11.683,11.683,0,0,1,.936,1.584l.948-.42A13.636,13.636,0,0,0,22.74-10.044Zm-3.828.576H17.136a6.216,6.216,0,0,1,.108,1.044v.96H14.2a9.137,9.137,0,0,1-1.164-.1v1.6c.336-.036.8-.048,1.164-.048h3.048V-6c0,.564,0,4.368-.012,4.812-.012.312-.132.432-.444.432A8.3,8.3,0,0,1,15.456-.9L15.6.588A17.327,17.327,0,0,0,17.556.7C18.408.7,18.8.264,18.8-.432v-5.58h2.808c.324,0,.792.012,1.176.036V-7.548a9.712,9.712,0,0,1-1.188.084H18.8v-.96A9.728,9.728,0,0,1,18.912-9.468ZM25.1-5.556v1.884c.444-.036,1.248-.06,1.932-.06H33.48c.5,0,1.116.048,1.4.06V-5.556c-.312.024-.84.072-1.4.072H27.036C26.412-5.484,25.536-5.52,25.1-5.556Zm19.08-3.372-1.008.42a10.28,10.28,0,0,1,1.056,1.86l1.044-.468C45-7.656,44.52-8.424,44.184-8.928Zm1.572-.66-1,.468a11.236,11.236,0,0,1,1.116,1.8l1.008-.492A15.892,15.892,0,0,0,45.756-9.588ZM39.4-.972A12.994,12.994,0,0,1,39.276.7H41.16C41.1.2,41.04-.636,41.04-.972v-3.4A32.147,32.147,0,0,1,45.384-2.58l.672-1.668A41.747,41.747,0,0,0,41.04-6.12V-7.872a13.05,13.05,0,0,1,.108-1.452H39.276a8.468,8.468,0,0,1,.12,1.452Z" transform="translate(493 867)" fill="#1c1918"/></g></svg>