<svg xmlns="http://www.w3.org/2000/svg" width="315" height="60" viewBox="0 0 315 60"><g fill="#fff"><path d="M 285 59.5 L 30 59.5 C 26.01730728149414 59.5 22.15399932861328 58.72007751464844 18.51742362976074 57.18196105957031 C 15.00465393066406 55.6961555480957 11.84973049163818 53.56903839111328 9.140346527099609 50.85965347290039 C 6.430961608886719 48.1502685546875 4.30384635925293 44.99534606933594 2.818038463592529 41.48257827758789 C 1.27992308139801 37.84600067138672 0.5 33.98269271850586 0.5 30 C 0.5 26.01730728149414 1.27992308139801 22.15399932861328 2.818038463592529 18.51742362976074 C 4.30384635925293 15.00465393066406 6.430961608886719 11.84973049163818 9.140346527099609 9.140346527099609 C 11.84973049163818 6.430961608886719 15.00465393066406 4.30384635925293 18.51742362976074 2.818038463592529 C 22.15399932861328 1.27992308139801 26.01730728149414 0.5 30 0.5 L 285 0.5 C 288.9826965332031 0.5 292.8460083007812 1.27992308139801 296.4825744628906 2.818038463592529 C 299.995361328125 4.30384635925293 303.1502685546875 6.430961608886719 305.8596496582031 9.140346527099609 C 308.5690307617188 11.84973049163818 310.6961669921875 15.00465393066406 312.1819763183594 18.51742362976074 C 313.7200622558594 22.15399932861328 314.5 26.01730728149414 314.5 30 C 314.5 33.98269271850586 313.7200622558594 37.84600067138672 312.1819763183594 41.48257827758789 C 310.6961669921875 44.99534606933594 308.5690307617188 48.1502685546875 305.8596496582031 50.85965347290039 C 303.1502685546875 53.56903839111328 299.995361328125 55.6961555480957 296.4825744628906 57.18196105957031 C 292.8460083007812 58.72007751464844 288.9826965332031 59.5 285 59.5 Z" stroke="none"/><path d="M 30 1 C 26.0845947265625 1 22.28683471679688 1.766624450683594 18.71221923828125 3.278541564941406 C 15.25900268554688 4.739124298095703 12.15753173828125 6.830291748046875 9.493927001953125 9.493915557861328 C 6.830291748046875 12.15754318237305 4.7391357421875 15.25899887084961 3.278533935546875 18.71220779418945 C 1.766632080078125 22.28683471679688 1 26.0845832824707 1 30 C 1 33.9154167175293 1.766632080078125 37.71316528320312 3.278533935546875 41.28779220581055 C 4.7391357421875 44.74100112915039 6.830291748046875 47.84246063232422 9.493927001953125 50.50608444213867 C 12.15753173828125 53.16970825195312 15.25900268554688 55.2608757019043 18.71221923828125 56.72145843505859 C 22.28683471679688 58.23337554931641 26.0845947265625 59 30 59 L 285 59 C 288.9154052734375 59 292.7131652832031 58.23337554931641 296.2877807617188 56.72145843505859 C 299.7409973144531 55.2608757019043 302.8424682617188 53.16970825195312 305.5060729980469 50.50608444213867 C 308.1697082519531 47.84246063232422 310.2608642578125 44.74100112915039 311.7214660644531 41.28779220581055 C 313.2333679199219 37.71316528320312 314 33.9154167175293 314 30 C 314 26.0845832824707 313.2333679199219 22.28683471679688 311.7214660644531 18.71220779418945 C 310.2608642578125 15.25899887084961 308.1697082519531 12.15754318237305 305.5060729980469 9.493915557861328 C 302.8424682617188 6.830291748046875 299.7409973144531 4.739124298095703 296.2877807617188 3.278541564941406 C 292.7131652832031 1.766624450683594 288.9154052734375 1 285 1 L 30 1 M 30 0 L 285 0 C 301.5685424804688 0 315 13.43145751953125 315 30 C 315 46.56854248046875 301.5685424804688 60 285 60 L 30 60 C 13.43145751953125 60 0 46.56854248046875 0 30 C 0 13.43145751953125 13.43145751953125 0 30 0 Z" stroke="none" fill="#fff"/></g><g transform="translate(-834 -2233)"><text transform="translate(962 2274)" fill="#1c1918" font-size="30" font-family="YanoneKaffeesatz-Bold, Yanone Kaffeesatz" font-weight="700" letter-spacing="0.05em"><tspan x="-67.215" y="0">ONLINE STORE</tspan></text><g transform="translate(1045.783 2263.783)"><g transform="translate(-6.5 -6.5)"><path d="M7.769,0V.968h3.785L6.363,6.157l.684.684,5.191-5.19V5.435h.968V0Z" transform="translate(-0.206)" fill="#444"/><path d="M12.032,12.032H.968V.968H5.436V0H0V13H13V7.564h-.968Z" fill="#444"/></g></g><path d="M5.059,0l-.69.7L8.18,4.551H0v.941H8.135L4.367,9.3l.689.7L9.513,5.492h.033V5.458L10,5Z" transform="translate(1113 2259)" fill="#de5329"/></g><path d="M11.9,18.079a1.91,1.91,0,1,1-1.91-1.921A1.915,1.915,0,0,1,11.9,18.079Zm5.042-1.921a1.921,1.921,0,1,0,1.91,1.921A1.916,1.916,0,0,0,16.943,16.158ZM7.5,15.26l.035-.009H7.5Zm11.5-3.092a.487.487,0,0,0,.067-.087h0a.323.323,0,0,0,.015-.029.59.59,0,0,0,.05-.122L21.807,5a1.012,1.012,0,0,0-.356-1.189,1.477,1.477,0,0,0-.854-.273H5.992L5.212.642A.88.88,0,0,0,4.376.017L.819,0C.354,0,0,.263,0,.689a.865.865,0,0,0,.824.855l3.135.077L7.542,15.251H19.026c.565,0,1.024-.326,1.024-.728s-.459-.728-1.024-.728H8.729l-.372-1.38h10.06A.768.768,0,0,0,18.993,12.168Z" transform="translate(29 22)" fill="#0a0709"/></svg>