<svg width="35" height="32" viewBox="0 0 35 32" fill="none" xmlns="http://www.w3.org/2000/svg">
<g clip-path="url(#clip0_4053_976)">
<path d="M19.042 28.837C19.042 29.4416 18.8626 30.0327 18.5267 30.5355C18.1908 31.0383 17.7133 31.4301 17.1546 31.6615C16.596 31.8929 15.9813 31.9535 15.3882 31.8355C14.7952 31.7175 14.2504 31.4264 13.8228 30.9988C13.3953 30.5712 13.1041 30.0265 12.9861 29.4334C12.8682 28.8404 12.9287 28.2256 13.1601 27.667C13.3915 27.1083 13.7834 26.6309 14.2861 26.2949C14.7889 25.959 15.38 25.7797 15.9847 25.7797C16.3862 25.7797 16.7837 25.8588 17.1546 26.0124C17.5256 26.166 17.8626 26.3912 18.1465 26.6751C18.4304 26.959 18.6556 27.2961 18.8092 27.667C18.9629 28.0379 19.042 28.4355 19.042 28.837ZM27.1092 25.7797C26.5046 25.7797 25.9135 25.959 25.4107 26.2949C24.9079 26.6309 24.5161 27.1083 24.2847 27.667C24.0533 28.2256 23.9927 28.8404 24.1107 29.4334C24.2287 30.0265 24.5198 30.5712 24.9474 30.9988C25.375 31.4264 25.9197 31.7175 26.5128 31.8355C27.1059 31.9535 27.7206 31.8929 28.2792 31.6615C28.8379 31.4301 29.3153 31.0383 29.6513 30.5355C29.9872 30.0327 30.1665 29.4416 30.1665 28.837C30.1663 28.0263 29.844 27.2489 29.2707 26.6758C28.6974 26.1026 27.9199 25.7797 27.1092 25.7797ZM11.9964 24.3497L12.0526 24.3358H11.9934L11.9964 24.3497ZM30.3884 19.4304C30.4291 19.3882 30.4648 19.3416 30.4949 19.2913C30.5039 19.2766 30.5121 19.2615 30.5196 19.246C30.5536 19.1835 30.5804 19.1173 30.5995 19.0487L34.8905 8.0198C35.0202 7.68596 35.0345 7.31834 34.9313 6.97541C34.828 6.63248 34.613 6.33394 34.3205 6.12725C33.9207 5.84472 33.4431 5.69312 32.9536 5.69331H9.58706L8.33949 1.09259C8.25162 0.805995 8.07448 0.554974 7.83391 0.376142C7.59334 0.19731 7.30192 0.100024 7.00217 0.098476L1.3097 0.0708618C0.566091 0.0708618 0 0.48902 0 1.16655C0.00467715 1.51881 0.143823 1.85595 0.388952 2.10896C0.63408 2.36197 0.96665 2.51172 1.31858 2.52754L6.3345 2.65082L12.0674 24.3319H30.4407C31.3451 24.3319 32.0788 23.8132 32.0788 23.1741C32.0788 22.535 31.3451 22.0163 30.4407 22.0163H13.9708L13.3791 19.8209H29.4673C29.6395 19.824 29.8105 19.7909 29.9692 19.7238C30.1278 19.6567 30.2707 19.5571 30.3884 19.4314V19.4304Z" fill="#0A0709"/>
</g>
<defs>
<clipPath id="clip0_4053_976">
<rect width="35" height="31.8224" fill="white" transform="translate(0 0.0708618)"/>
</clipPath>
</defs>
</svg>
