<svg width="248" height="68" viewBox="0 0 248 68" fill="none" xmlns="http://www.w3.org/2000/svg">
<g clip-path="url(#clip0_4144_403)">
<path d="M8.94471 17.4598L0.905751 12.7938C0.490594 12.5681 -4.68008e-05 12.8691 0.0376948 13.3583C0.452852 19.3412 2.33993 30.6298 9.81277 43.4988C17.2856 56.3677 26.1171 63.6301 31.099 67.0166C31.4764 67.28 32.0048 67.0166 32.0048 66.5275V57.2332C32.0048 57.2332 32.42 42.6333 27.1362 33.5272C21.8523 24.4211 8.98245 17.4598 8.98245 17.4598" fill="#EB5F1B"/>
<path d="M66.0478 7.67623C66.463 7.45046 66.4253 6.8484 66.0478 6.62263C60.6508 4.02626 49.8944 0 34.9865 0C20.0786 0 9.28449 4.02626 3.88744 6.62263C3.47229 6.81078 3.43454 7.41283 3.88744 7.67623L11.9641 12.3046C11.9641 12.3046 24.4566 19.9432 34.9865 19.9432C45.5164 19.9432 58.0089 12.3046 58.0089 12.3046L66.0856 7.67623H66.0478Z" fill="#EB5F1B"/>
<path d="M69.0293 12.7936L60.9526 17.4219C60.9526 17.4219 48.0828 24.3832 42.7989 33.4893C37.5151 42.5955 37.9303 57.1954 37.9303 57.1954V66.4896C37.9303 66.9788 38.4586 67.2422 38.8361 66.9788C43.818 63.6299 52.6872 56.3675 60.1223 43.4609C67.5952 30.5919 69.4445 19.3034 69.8974 13.3204C69.8974 12.8312 69.4068 12.5302 69.0293 12.756" fill="#EB5F1B"/>
<path d="M104.808 15.9546L97.5242 32.1349L90.2401 15.9546H79.7102L92.014 37.9297C92.6178 39.0209 92.9575 40.2627 92.9575 41.5044V51.0997H102.28V41.5797C102.28 40.3756 102.582 39.1338 103.185 38.0802L115.301 15.9546H104.846H104.808Z" fill="white"/>
<path d="M163.006 15.9546H148.702V51.0997H163.006C174.328 51.0997 179.348 46.6595 179.348 36.7632V30.3287C179.348 20.4324 174.442 16.1427 163.006 15.9922M169.95 36.7632C169.95 41.7678 167.95 43.8374 163.006 43.8374H158.024V23.2545H163.006C167.875 23.2545 169.95 25.3617 169.95 30.3287V36.7632Z" fill="white"/>
<path d="M193.879 37.3276H207.277V30.1029H193.879V23.2545H208.9V15.9546H184.594V51.0997H209.315V43.8374H193.879V37.3276Z" fill="white"/>
<path d="M122.736 15.9546L110.054 51.0997H119.716L121.301 45.9822H133.832L135.417 51.0997H145.116L132.435 15.9546H122.773H122.736ZM123.453 38.8704L127.567 24.5339L131.605 38.8704H123.453Z" fill="white"/>
<path d="M235.281 15.9546H225.619L212.938 51.0997H222.638L224.223 45.9822H236.753L238.338 51.0997H248.038L235.357 15.9546H235.281ZM226.336 38.8704L230.45 24.5339L234.489 38.8704H226.336Z" fill="white"/>
</g>
<defs>
<clipPath id="clip0_4144_403">
<rect width="248" height="67.0918" fill="white"/>
</clipPath>
</defs>
</svg>
